<svg xmlns="http://www.w3.org/2000/svg" xmlns:xlink="http://www.w3.org/1999/xlink" fill="none" version="1.1" width="20.35723876953125" height="20.35723876953125" viewBox="0 0 20.35723876953125 20.35723876953125"><g><g><path d="M10.178620357627869,19.357200357627868C5.117510357627869,19.357200357627868,1.0000003576278687,15.239700357627868,1.0000003576278687,10.178620357627869C1.0000003576278687,5.117510357627869,5.117510357627869,1.0000003576278687,10.178620357627869,1.0000003576278687C15.239700357627868,1.0000003576278687,19.357200357627868,5.117510357627869,19.357200357627868,10.178620357627869C19.357200357627868,15.239700357627868,15.239700357627868,19.357200357627868,10.178620357627869,19.357200357627868Z" fill="#F52F2D" fill-opacity="1"/></g><g><path d="M10.1786,2C5.66891,2,2,5.66891,2,10.1786C2,14.6883,5.66891,18.3572,10.1786,18.3572C14.6883,18.3572,18.3572,14.6883,18.3572,10.1786C18.3572,5.66891,14.6883,2,10.1786,2ZM10.1786,0C15.8001,0,20.3572,4.55712,20.3572,10.1786C20.3572,15.8001,15.8001,20.3572,10.1786,20.3572C4.55712,20.3572,0,15.8001,0,10.1786C0,4.55712,4.55712,0,10.1786,0Z" fill="#000000" fill-opacity="1"/></g></g></svg>