<svg xmlns="http://www.w3.org/2000/svg" xmlns:xlink="http://www.w3.org/1999/xlink" fill="none" version="1.1" width="84.42498779296875" height="66.43899536132812" viewBox="0 0 84.42498779296875 66.43899536132812"><defs><mask id="master_svg0_1_413" style="mask-type:alpha" maskUnits="userSpaceOnUse"><g><rect x="0" y="0" width="84.42500305175781" height="66.43900299072266" rx="0" fill="#FFFFFF" fill-opacity="1"/></g></mask><mask id="master_svg1_1_418" style="mask-type:alpha" maskUnits="userSpaceOnUse"><g><rect x="0" y="0" width="84.42500305175781" height="66.43900299072266" rx="0" fill="#FFFFFF" fill-opacity="1"/></g></mask><mask id="master_svg2_1_421" style="mask-type:alpha" maskUnits="userSpaceOnUse"><g><rect x="0" y="0" width="84.42500305175781" height="66.43900299072266" rx="0" fill="#FFFFFF" fill-opacity="1"/></g></mask><mask id="master_svg3_1_426" style="mask-type:alpha" maskUnits="userSpaceOnUse"><g><rect x="0" y="0" width="84.42500305175781" height="66.43900299072266" rx="0" fill="#FFFFFF" fill-opacity="1"/></g></mask><mask id="master_svg4_1_429" style="mask-type:alpha" maskUnits="userSpaceOnUse"><g><rect x="0" y="0" width="84.42500305175781" height="66.43900299072266" rx="0" fill="#FFFFFF" fill-opacity="1"/></g></mask><mask id="master_svg5_1_432" style="mask-type:alpha" maskUnits="userSpaceOnUse"><g><rect x="0" y="0" width="84.42500305175781" height="66.43900299072266" rx="0" fill="#FFFFFF" fill-opacity="1"/></g></mask><mask id="master_svg6_1_435" style="mask-type:alpha" maskUnits="userSpaceOnUse"><g><rect x="0" y="0" width="84.42500305175781" height="66.43900299072266" rx="0" fill="#FFFFFF" fill-opacity="1"/></g></mask><mask id="master_svg7_1_438" style="mask-type:alpha" maskUnits="userSpaceOnUse"><g><rect x="0" y="0" width="84.42500305175781" height="66.43900299072266" rx="0" fill="#FFFFFF" fill-opacity="1"/></g></mask><mask id="master_svg8_1_441" style="mask-type:alpha" maskUnits="userSpaceOnUse"><g><rect x="0" y="0" width="84.42500305175781" height="66.43900299072266" rx="0" fill="#FFFFFF" fill-opacity="1"/></g></mask><mask id="master_svg9_1_444" style="mask-type:alpha" maskUnits="userSpaceOnUse"><g><rect x="0" y="0" width="84.42500305175781" height="66.43900299072266" rx="0" fill="#FFFFFF" fill-opacity="1"/></g></mask><linearGradient x1="1.2309999465942383" y1="0.7360000014305115" x2="-0.164000004529953" y2="0.6980000138282776" id="master_svga_1_0970"><stop offset="0%" stop-color="#BEDCFF" stop-opacity="1"/><stop offset="100%" stop-color="#347BD1" stop-opacity="1"/></linearGradient></defs><g><g><g><g mask="url(#master_svg0_1_413)"><g><path d="M44.99799897766113,29.707000625610352Q44.99799897766113,30.08230062561035,44.979598977661134,30.45720062561035Q44.961198977661134,30.832000625610352,44.924398977661134,31.20550062561035Q44.88759897766113,31.57900062561035,44.83249897766113,31.95020062561035Q44.77749897766113,32.321500625610355,44.704198977661136,32.68960062561035Q44.630998977661136,33.05770062561035,44.539798977661135,33.421700625610356Q44.448598977661135,33.78580062561035,44.33969897766113,34.14490062561035Q44.23079897766114,34.50410062561035,44.10429897766113,34.85740062561035Q43.977898977661134,35.21080062561035,43.834298977661135,35.55750062561035Q43.69059897766113,35.90430062561035,43.53019897766113,36.24350062561035Q43.36969897766113,36.582800625610346,43.192798977661134,36.91380062561035Q43.01589897766114,37.24480062561035,42.82289897766113,37.56670062561035Q42.62999897766113,37.88860062561035,42.42149897766113,38.20070062561035Q42.21299897766113,38.51270062561035,41.98939897766113,38.814200625610354Q41.765798977661134,39.115600625610355,41.527798977661135,39.40570062561035Q41.28969897766113,39.69580062561035,41.03759897766113,39.973900625610355Q40.78559897766114,40.25200062561035,40.52019897766113,40.51740062561035Q40.25479897766113,40.78280062561035,39.97679897766113,41.03480062561035Q39.69869897766114,41.286800625610354,39.40859897766113,41.52490062561035Q39.11849897766113,41.76300062561035,38.81699897766113,41.98660062561035Q38.51559897766113,42.21010062561035,38.203498977661134,42.418700625610356Q37.89149897766113,42.62720062561036,37.56959897766113,42.82010062561035Q37.24769897766113,43.01310062561035,36.916698977661135,43.19000062561035Q36.58569897766113,43.366900625610356,36.24639897766113,43.527400625610355Q35.907098977661136,43.68780062561035,35.56039897766114,43.83140062561036Q35.21369897766113,43.97510062561035,34.86029897766113,44.101500625610356Q34.50689897766114,44.22790062561035,34.14779897766113,44.336900625610355Q33.788698977661134,44.44580062561035,33.424598977661134,44.53700062561035Q33.06059897766113,44.62820062561035,32.69249897766113,44.70140062561035Q32.32439897766113,44.77460062561035,31.95309897766113,44.82970062561035Q31.581898977661133,44.88480062561035,31.208398977661133,44.92160062561035Q30.834898977661133,44.95840062561035,30.460098977661133,44.97680062561035Q30.085198977661133,44.99520062561035,29.709898977661133,44.99520062561035Q29.33459897766113,44.99520062561035,28.959798977661134,44.97680062561035Q28.584898977661133,44.95840062561035,28.211398977661133,44.92160062561035Q27.837898977661133,44.88480062561035,27.46669897766113,44.82970062561035Q27.095398977661134,44.77460062561035,26.727298977661135,44.70140062561035Q26.359298977661133,44.62820062561035,25.995198977661133,44.53700062561035Q25.631098977661132,44.44580062561035,25.271998977661134,44.336900625610355Q24.912898977661133,44.22790062561035,24.559498977661132,44.101500625610356Q24.206138977661134,43.97510062561035,23.859408977661133,43.83140062561036Q23.512668977661132,43.68780062561035,23.173398977661133,43.52730062561035Q22.83412897766113,43.366900625610356,22.503148977661134,43.19000062561035Q22.172158977661134,43.01310062561035,21.850258977661134,42.82010062561035Q21.528348977661132,42.62720062561036,21.216298977661133,42.418700625610356Q20.904238977661134,42.21010062561035,20.60279897766113,41.98660062561035Q20.30134897766113,41.76300062561035,20.011238977661133,41.52490062561035Q19.72112897766113,41.286800625610354,19.44304897766113,41.03480062561035Q19.164968977661132,40.78280062561035,18.899588977661132,40.51740062561035Q18.63420897766113,40.25200062561035,18.382178977661134,39.973900625610355Q18.130138977661133,39.69580062561035,17.892048977661133,39.40570062561035Q17.653958977661134,39.115600625610355,17.43038897766113,38.814200625610354Q17.206828977661132,38.51270062561035,16.998318977661132,38.20070062561035Q16.78980897766113,37.88860062561035,16.59686897766113,37.56670062561035Q16.40392897766113,37.24480062561035,16.227008977661132,36.91380062561035Q16.050098977661133,36.582800625610346,15.889628977661133,36.24350062561035Q15.729168977661132,35.90430062561035,15.585548977661134,35.55750062561035Q15.441928977661133,35.21080062561035,15.315491977661132,34.85740062561035Q15.189056977661133,34.50410062561035,15.080111977661133,34.14490062561035Q14.971167977661132,33.78580062561035,14.879976977661133,33.421700625610356Q14.788785977661133,33.05770062561035,14.715568977661134,32.68960062561035Q14.642350977661133,32.321500625610355,14.587282977661133,31.95020062561035Q14.532213977661133,31.57900062561035,14.495428377661133,31.20550062561035Q14.458642377661134,30.832000625610352,14.440227277661133,30.45720062561035Q14.421812057661132,30.08230062561035,14.421812057661132,29.707000625610352Q14.421812057661132,29.331700625610353,14.440227277661133,28.956800625610352Q14.458642377661134,28.582000625610352,14.495428377661133,28.208500625610352Q14.532213977661133,27.835000625610352,14.587282977661133,27.463800625610354Q14.642350977661133,27.092500625610352,14.715568977661134,26.72440062561035Q14.788785977661133,26.356300625610352,14.879976977661133,25.99230062561035Q14.971167977661132,25.62820062561035,15.080111977661133,25.26910062561035Q15.189056977661133,24.90990062561035,15.315491977661132,24.55660062561035Q15.441928977661133,24.20320062561035,15.585548977661134,23.856460625610353Q15.729168977661132,23.509730625610352,15.889628977661133,23.17045062561035Q16.050098977661133,22.83118062561035,16.227008977661132,22.500200625610354Q16.40392897766113,22.16921062561035,16.59686897766113,21.84730062561035Q16.78980897766113,21.525390625610353,16.998318977661132,21.21334062561035Q17.206828977661132,20.90128062561035,17.43038897766113,20.59984062561035Q17.653958977661134,20.298390625610352,17.892048977661133,20.00827062561035Q18.130138977661133,19.718160625610352,18.382178977661134,19.440080625610353Q18.63420897766113,19.162000625610354,18.899588977661132,18.896620625610353Q19.164968977661132,18.631240625610353,19.44304897766113,18.379200625610352Q19.72112897766113,18.12716062561035,20.011238977661133,17.88907062561035Q20.30134897766113,17.65098062561035,20.60279897766113,17.427410625610353Q20.904238977661134,17.20384062561035,21.216298977661133,16.995340625610353Q21.528348977661132,16.786830625610353,21.850258977661134,16.593880625610353Q22.172158977661134,16.400940625610353,22.503148977661134,16.22402062561035Q22.83412897766113,16.04710062561035,23.173398977661133,15.886640625610351Q23.512668977661132,15.726180625610352,23.859408977661133,15.582560625610352Q24.206138977661134,15.438930625610352,24.559498977661132,15.312497625610352Q24.912898977661133,15.186061625610352,25.271998977661134,15.077116625610351Q25.631098977661132,14.968171625610351,25.995198977661133,14.87698062561035Q26.359298977661133,14.785788625610351,26.727298977661135,14.712570625610352Q27.095398977661134,14.639352625610352,27.46669897766113,14.584284625610351Q27.837898977661133,14.529215625610352,28.211398977661133,14.492429525610351Q28.584898977661133,14.455643325610351,28.959798977661134,14.437228025610352Q29.33459897766113,14.418812751610352,29.709898977661133,14.418812751610352Q30.085198977661133,14.418812751610352,30.460098977661133,14.437228025610352Q30.834898977661133,14.455643325610351,31.208398977661133,14.492429525610351Q31.581898977661133,14.529215625610352,31.95309897766113,14.584284625610351Q32.32439897766113,14.639352625610352,32.69249897766113,14.712570625610352Q33.06059897766113,14.785788625610351,33.424598977661134,14.87698062561035Q33.788698977661134,14.968171625610351,34.14779897766113,15.077116625610351Q34.50689897766114,15.186061625610352,34.86029897766113,15.312497625610352Q35.21369897766113,15.438930625610352,35.56039897766114,15.582560625610352Q35.907098977661136,15.726180625610352,36.24639897766113,15.886640625610351Q36.58569897766113,16.04710062561035,36.916698977661135,16.22402062561035Q37.247598977661134,16.400940625610353,37.56959897766113,16.593880625610353Q37.89149897766113,16.786830625610353,38.203498977661134,16.995340625610353Q38.51559897766113,17.20384062561035,38.81699897766113,17.427410625610353Q39.11849897766113,17.65098062561035,39.40859897766113,17.88907062561035Q39.69869897766114,18.12716062561035,39.97679897766113,18.379200625610352Q40.25479897766113,18.631240625610353,40.52019897766113,18.896620625610353Q40.78559897766114,19.162000625610354,41.03759897766113,19.440080625610353Q41.28969897766113,19.718160625610352,41.527798977661135,20.00827062561035Q41.765798977661134,20.298390625610352,41.98939897766113,20.59984062561035Q42.21299897766113,20.90128062561035,42.42149897766113,21.21334062561035Q42.62999897766113,21.525390625610353,42.82289897766113,21.84730062561035Q43.01589897766114,22.16921062561035,43.192798977661134,22.500200625610354Q43.36969897766113,22.83118062561035,43.53019897766113,23.17045062561035Q43.69059897766113,23.509730625610352,43.834298977661135,23.856460625610353Q43.977898977661134,24.20320062561035,44.10429897766113,24.55660062561035Q44.23079897766114,24.90990062561035,44.33969897766113,25.26910062561035Q44.448598977661135,25.62820062561035,44.539798977661135,25.99230062561035Q44.630998977661136,26.356300625610352,44.704198977661136,26.72440062561035Q44.77749897766113,27.092500625610352,44.83249897766113,27.463800625610354Q44.88759897766113,27.835000625610352,44.924398977661134,28.208500625610352Q44.961198977661134,28.582000625610352,44.979598977661134,28.956800625610352Q44.99799897766113,29.331700625610353,44.99799897766113,29.707000625610352Z" fill="#FCD63C" fill-opacity="1"/></g></g><g mask="url(#master_svg1_1_418)"><g><path d="M29.711001586914062,10.812999999952503C30.649881586914063,10.812999999952503,31.41100158691406,10.051899999952502,31.41100158691406,9.112999999952503L31.41100158691406,1.6989999999525025C31.41100158691406,0.7601159999525026,30.649881586914063,-0.0010000000474974513,29.711001586914062,-0.0010000000474974513C28.772117586914064,-0.0010000000474974513,28.011001586914062,0.7601159999525026,28.011001586914062,1.6989999999525025L28.011001586914062,9.113999999952503C28.011001586914062,10.052899999952503,28.772117586914064,10.813999999952502,29.711001586914062,10.812999999952503Z" fill="#FCD63C" fill-opacity="1"/></g></g><g mask="url(#master_svg2_1_421)"><g><path d="M57.71700173950195,28.010000228881836L50.301001739501956,28.010000228881836C49.362117739501954,28.010000228881836,48.60100173950195,28.771116228881837,48.60100173950195,29.710000228881835C48.60100173950195,30.648880228881836,49.362117739501954,31.410000228881835,50.301001739501956,31.410000228881835L57.71700173950195,31.410000228881835C58.65590173950196,31.410000228881835,59.417001739501956,30.648880228881836,59.417001739501956,29.710000228881835C59.417001739501956,28.771116228881837,58.65590173950196,28.010000228881836,57.71700173950195,28.010000228881836Z" fill="#FFEE58" fill-opacity="1"/></g></g><g mask="url(#master_svg3_1_426)"><g><path d="M29.71099967956543,48.60599708554453C28.77211567956543,48.605995178244534,28.01099967956543,49.36711166064453,28.01099967956543,50.30599466064453L28.01099967956543,57.72399466064453C28.01099967956543,58.66286466064453,28.77211567956543,59.42396466064453,29.71099967956543,59.42396466064453C30.64987967956543,59.42396466064453,31.41099967956543,58.66286466064453,31.41099967956543,57.72399466064453L31.41099967956543,50.29999466064453C31.41099967956543,49.36111466064453,30.64987967956543,48.59999847064453,29.71099967956543,48.60599708554453Z" fill="#FFEE58" fill-opacity="1"/></g></g><g mask="url(#master_svg4_1_429)"><g><path d="M10.813959953617491,29.707999420166015C10.813959953617491,28.769115420166017,10.05285995361749,28.007999420166016,9.11399995361749,28.007999420166016L1.6999999536174908,28.007999420166016C0.7617649536174909,28.008914947166016,0.001659953617490828,28.769762420166014,0.001659953617490828,29.707999420166015C0.001659841625490828,30.646239420166015,0.7617649536174909,31.407079420166017,1.6999999536174908,31.407999420166014L9.114999953617492,31.407999420166014C10.05385995361749,31.407999420166014,10.81495995361749,30.646879420166016,10.813959953617491,29.707999420166015Z" fill="#FCD63C" fill-opacity="1"/></g></g><g mask="url(#master_svg5_1_432)"><g><path d="M45.46800057128906,16.347002020874022L48.87400057128906,12.947002020874024C49.47188057128906,12.274242020874023,49.44179057128906,11.252062020874023,48.805360571289064,10.615634020874023C48.16894057128906,9.979210020874023,47.146760571289065,9.949118020874023,46.47400057128906,10.547000020874023L43.066997571289065,13.947002020874024C42.469116571289064,14.619762020874024,42.49921057128906,15.641942020874023,43.13563357128906,16.278362020874024C43.77206057128906,16.91478202087402,44.79423057128906,16.944882020874022,45.46800057128906,16.347002020874022Z" fill="#FCD63C" fill-opacity="1"/></g></g><g mask="url(#master_svg6_1_435)"><g><path d="M45.46800383666992,43.06999973803711C44.79523383666992,42.47211873803711,43.773053836669924,42.50221273803711,43.13663483666992,43.13863573803711C42.50021183666992,43.77506273803711,42.47011983666992,44.79723273803711,43.068000836669924,45.47000273803711L46.47500383666992,48.87000273803711C47.147763836669924,49.46788273803711,48.16994383666992,49.43778273803711,48.806363836669924,48.80136273803711C49.44279383666992,48.16493273803711,49.47288383666992,47.142762738037106,48.87500383666992,46.47000273803711L45.46800383666992,43.06999973803711Z" fill="#FFEE58" fill-opacity="1"/></g></g><g mask="url(#master_svg7_1_438)"><g><path d="M13.94800095275879,43.07000133959961L10.54199995275879,46.47600433959961C9.94411595275879,47.14876433959961,9.974207952758789,48.17094433959961,10.61063395275879,48.80736433959961C11.247060952758789,49.443794339599606,12.26924095275879,49.47388433959961,12.94200095275879,48.87600433959961L16.34900095275879,45.47600433959961C17.08019095275879,44.82619433959961,17.11350095275879,43.69489433959961,16.42180095275879,43.00319833959961C15.73010095275879,42.311502339599606,14.59880095275879,42.34481033959961,13.94800095275879,43.07000133959961Z" fill="#FFEE58" fill-opacity="1"/></g></g><g mask="url(#master_svg8_1_441)"><g><path d="M13.947998641052246,16.346998206176757C14.620758641052246,16.944888206176756,15.642938641052247,16.91478820617676,16.279368641052244,16.278368206176758C16.915788641052245,15.641938206176757,16.945888641052246,14.619758206176758,16.347998641052246,13.946998206176758L12.940998641052246,10.547001206176757C12.268238641052246,9.949114206176757,11.246058641052246,9.979204206176759,10.609631641052246,10.615630206176757C9.973204641052247,11.252058206176757,9.943114641052246,12.274238206176758,10.541000641052246,12.946998206176758L13.947998641052246,16.346998206176757Z" fill="#FCD63C" fill-opacity="1"/></g></g><g mask="url(#master_svg9_1_444)"><g><path d="M71.92395575714112,41.431984936523435C70.74555575714112,41.432384936523434,69.5730557571411,41.59868493652344,68.44095575714111,41.925984936523434C67.51575575714111,31.30630493652344,59.281155757141114,22.784844936523438,48.69935575714111,21.496664936523437C38.11755575714111,20.208484936523437,28.079055757141113,26.50544493652344,24.63295575714111,36.592984936523436C15.947085757141114,35.066384936523434,7.818178757141113,41.30798493652344,7.050212857141113,50.09358493652344C6.282246757141113,58.87908493652344,13.204965757141114,66.43638493652344,22.023955757141113,66.43998493652344L71.92395575714112,66.43998493652344C78.82945575714112,66.43998493652344,84.42745575714112,60.84198493652344,84.42745575714112,53.936484936523435C84.42745575714112,47.03098493652344,78.82945575714112,41.43298493652344,71.92395575714112,41.431984936523435Z" fill="url(#master_svga_1_0970)" fill-opacity="1"/></g></g></g></g></g></svg>