<svg xmlns="http://www.w3.org/2000/svg" xmlns:xlink="http://www.w3.org/1999/xlink" fill="none" version="1.1" width="83.30474853515625" height="27.582855224609375" viewBox="0 0 83.30474853515625 27.582855224609375"><g><path d="M3.52618,3.92905C2.74921,3.95605,2.36218,3.95303,1.58521,3.98004C0.620178,4.01404,0.0852051,3.82605,0.064209,4.83704L0.0012207,8.76004C-0.00775146,9.34805,0.0142212,9.43103,0.701233,9.43103C1.20123,9.43103,1.77924,9.43103,1.79126,8.87204L1.86725,5.18704C1.88025,4.57404,1.98328,4.58704,2.55725,4.57303L3.41925,4.55801C2.53693,9.96631,2.17426,15.4466,2.33624,20.924C2.42426,23.273,2.82227,25.624,4.23627,25.624L15.0013,25.624C15.5923,25.535,15.6563,25.372,15.4733,24.613C15.3829,24.2357,15.3372,23.8491,15.3373,23.461C15.4245,20.6379,17.7383,18.3945,20.5628,18.3945C23.3873,18.3945,25.701,20.6379,25.7883,23.461C25.7883,23.8473,25.743,24.2323,25.6533,24.608C25.4753,25.354,25.4633,25.632,26.2532,25.632L60.1843,25.632C60.6913,25.555,60.6943,25.488,60.5403,24.837C60.4517,24.4638,60.407,24.0816,60.4073,23.698C60.5029,20.8813,62.814,18.6474,65.6323,18.6474C68.4506,18.6474,70.7617,20.8813,70.8573,23.698C70.8575,24.0565,70.8186,24.4139,70.7413,24.764C70.5573,25.598,70.6413,25.633,71.2573,25.633L81.8983,25.633C82.4237,25.7139,82.8978,25.3076,82.8983,24.776C83.4469,17.0675,83.4402,9.32956,82.8782,1.62201C82.8612,0.0220032,82.2783,0.0110168,80.8203,0L7.26416,0C5.6673,0.136536,4.30243,1.20474,3.78613,2.72198C3.68616,3.103,3.60211,3.50897,3.52618,3.92905ZM68.1781,3.00497L80.1381,3.00497L80.1381,2.09396C80.1169,1.84241,79.898,1.65424,79.6461,1.67096L68.6712,1.67096C68.4193,1.65427,68.2005,1.84241,68.1792,2.09396L68.1781,3.00497ZM80.1381,3.42798L68.1781,3.42798L68.1781,9.34897C68.1993,9.60056,68.4182,9.7887,68.6701,9.77197L79.6462,9.77197C79.8981,9.78867,80.1169,9.60052,80.1382,9.34897L80.1381,3.42798ZM15.0001,3.00497L26.6701,3.00497L26.6701,2.09396C26.6489,1.84241,26.43,1.65424,26.1781,1.67096L15.2042,1.67096C14.9523,1.65424,14.7334,1.84238,14.7122,2.09396L14.7122,3.00797C14.7961,3.00797,14.8951,3.00797,15.0001,3.00497ZM26.6721,3.43097L15.0021,3.43097C14.8961,3.43097,14.7961,3.43097,14.7122,3.43097L14.7122,9.35498C14.7334,9.60657,14.9523,9.79471,15.2042,9.77798L26.1791,9.77798C26.4308,9.79416,26.6494,9.60626,26.6711,9.35498L26.6721,3.43097ZM41.3051,3.00797L53.2651,3.00797L53.2651,2.09695C53.2439,1.8454,53.025,1.65723,52.7731,1.67395L41.7962,1.67395C41.5439,1.65671,41.3245,1.845,41.3032,2.09695L41.3051,3.00797ZM53.2651,3.43097L41.3051,3.43097L41.3051,9.35196C41.3264,9.60391,41.5458,9.79221,41.7981,9.77496L52.7731,9.77496C53.025,9.79166,53.2438,9.60352,53.2651,9.35196L53.2651,3.43097ZM5.29211,3.68396C6.0451,3.00397,7.46112,1.90796,8.30713,1.90796L10.9391,1.90796C11.4791,1.90796,11.7681,2.15997,11.7681,2.70795C11.7681,4.29694,11.6281,7.84995,11.6281,9.43893C11.6281,9.72992,11.0591,10.0239,10.5091,10.2029C9.45612,10.5459,9.3631,10.3529,9.30011,11.5329C9.26709,12.1539,9.11511,13.5609,9.04114,14.6419C9.02246,15.0674,8.80273,15.4586,8.44916,15.6959C6.98401,16.2195,5.55975,16.8512,4.18817,17.5859C4.00818,17.7159,3.73218,17.3469,3.73016,16.9859C3.72516,16.0039,4.18219,8.19592,4.69415,4.97592C4.75311,4.49457,4.9632,4.04434,5.29211,3.68396ZM20.5671,19.5989C22.6898,19.6674,24.3619,21.4319,24.3162,23.5552C24.2705,25.6786,22.5241,27.3695,20.4004,27.3466C18.2767,27.3238,16.5671,25.5957,16.5671,23.4719C16.6017,21.2976,18.3929,19.5633,20.5671,19.5989ZM65.6392,19.8349C67.7619,19.9034,69.434,21.6678,69.3883,23.7912C69.3426,25.9146,67.5962,27.6055,65.4725,27.5826C63.3488,27.5598,61.6392,25.8317,61.6392,23.7079C61.6737,21.5336,63.4649,19.7993,65.6392,19.8349ZM55.2391,1.6799L66.2141,1.6799C66.466,1.66321,66.6848,1.85135,66.7061,2.10291L66.7061,9.35791C66.6844,9.60922,66.4658,9.79709,66.2141,9.78091L55.2342,9.78091C54.9825,9.79709,54.764,9.60922,54.7422,9.35791L54.7422,2.10291C54.7634,1.85135,54.9823,1.66318,55.2391,1.6799ZM28.3602,1.6799L39.3351,1.6799C39.587,1.66318,39.8059,1.85135,39.8271,2.10291L39.8271,9.35791C39.8054,9.60922,39.5869,9.79709,39.3351,9.78091L28.3602,9.78091C28.1083,9.79761,27.8894,9.60947,27.8682,9.35791L27.8682,2.10291C27.8894,1.85135,28.1083,1.66318,28.3602,1.6799Z" fill-rule="evenodd" fill="#0B1F8F" fill-opacity="1"/></g></svg>