<svg xmlns="http://www.w3.org/2000/svg" xmlns:xlink="http://www.w3.org/1999/xlink" fill="none" version="1.1" width="70.1929931640625" height="24.217987060546875" viewBox="0 0 70.1929931640625 24.217987060546875"><g><g><path d="M8.284989074707031,19.238983421874998C7.467159074707031,18.640258821875,6.382229074707031,18.552063421875,5.478429074707031,19.010833421875C4.574638074707031,19.469574421875,4.005432128707032,20.397402421875,4.005989074707031,21.410982421875C4.005989074707031,21.449982421875,4.005989074707031,21.489992421875,4.005989074707031,21.528992421875C4.068077074707031,22.967652421875002,5.252489074707031,24.102052421875,6.692489074707032,24.102052421875C8.132489074707031,24.102052421875,9.316899074707031,22.967652421875002,9.378989074707032,21.528992421875C9.378989074707032,21.489992421875,9.378989074707032,21.449982421875,9.378989074707032,21.410982421875C9.38034907470703,20.552822421875,8.97156907470703,19.745692421875,8.284989074707031,19.238983421874998Z" fill="#0B1F8F" fill-opacity="1"/></g><g><path d="M31.802978046875,19.2390132734375C30.240688046875,18.2772212734375,28.194977046875,19.1243282734375,27.769989046875,20.9090302734375C27.722381546875,21.1119402734375,27.698211669875,21.3196102734375,27.697998046875,21.5280102734375C27.703796386875,23.0101002734375,28.906888046875,24.2085002734375,30.388978046875,24.2085002734375C31.871068046875,24.2085002734375,33.074188046875,23.0101002734375,33.079988046875,21.5280102734375C33.079768046875,21.3196102734375,33.055638046875,21.1119402734375,33.007998046875,20.9090302734375C32.843168046875,20.2145402734375,32.409398046875,19.6138612734375,31.802978046875,19.2390132734375Z" fill="#0B1F8F" fill-opacity="1"/></g><g><path d="M56.12100288085937,18.8380126953125C54.63559288085938,18.8390808153125,53.432220458859376,20.0439426953125,53.432952880859375,21.5293226953125C53.433685302859374,23.0147126953125,54.63821288085938,24.2183526953125,56.12362288085937,24.2179826953125C57.60904288085938,24.2176226953125,58.81295288085938,23.0133926953125,58.81302288085938,21.5280126953125C58.812472880859374,20.0417826953125,57.60721288085938,18.8374328613125,56.12100288085937,18.8380126953125Z" fill="#0B1F8F" fill-opacity="1"/></g><g><path d="M63.56802333007813,18.8380126953125C62.082613330078125,18.8390808153125,60.879180908078126,20.0439126953125,60.879913330078125,21.5293226953125C60.880645752078124,23.0147126953125,62.08517333007813,24.2183526953125,63.57058333007812,24.2179826953125C65.05600333007813,24.2176226953125,66.25998333007813,23.0134326953125,66.26004333007812,21.5280126953125C66.25955333007812,20.0417826953125,65.05423333007812,18.8373718263125,63.56802333007813,18.8380126953125Z" fill="#0B1F8F" fill-opacity="1"/></g><g><path d="M50.225984072265625,18.94900560546875L41.588959072265624,18.94900560546875L41.588959072265624,18.50900268546875L41.10495007226562,18.50900268546875L41.10495007226562,21.39800560546875L40.790924072265625,21.39800560546875L41.258942072265626,22.69302560546875L41.90396407226562,22.69302560546875L41.90396407226562,21.39800560546875L41.589935072265625,21.39800560546875L41.589935072265625,20.31802560546875L51.61192407226562,20.31802560546875L51.61192407226562,20.49700560546875L51.750924072265626,20.49700560546875L51.750924072265626,21.25900560546875L52.298824072265624,21.25900560546875L52.298824072265624,21.07199560546875L51.93782407226563,21.07199560546875L51.93782407226563,20.49697560546875L52.07682407226562,20.49697560546875L52.07682407226562,20.31799560546875L52.298824072265624,20.31799560546875L52.298824072265624,19.71798560546875L41.588959072265624,19.71798560546875L41.588959072265624,19.54699560546875L52.29792407226562,19.54699560546875L52.29792407226562,18.50799560546875L50.225984072265625,18.50799560546875L50.225984072265625,18.94900560546875Z" fill="#0B1F8F" fill-opacity="1"/></g><g><path d="M70.19299291996937,8.964L69.06499291996937,8.964L69.06499291996937,1.392C69.06499291996937,0.623609,68.44239291996938,0.000551028,67.67399291996938,0L17.528992919969372,0C16.760192919969374,-9.16458e-8,16.136992919969373,0.623219,16.136992919969373,1.392L16.136992919969373,13.98C15.129892919969372,13.829,14.219492919969372,13.2966,13.593992919969372,12.493L13.593992919969372,11.693L14.079992919969373,11.693L14.079992919969373,3.853L13.593992919969372,3.853L13.593992919969372,3.464L13.588992919969373,0Q7.788992919969372,0,6.017992919969372,3.464L5.099992919969372,3.464C4.678372919969372,3.46345,4.336442919969373,3.80538,4.336992919969372,4.227L4.336992919969372,5.22L-0.000007080030627548695,10.784L-0.000007080030627548695,17.291C-0.000007080030627548695,17.5671,0.22385091996937245,17.791,0.49999291996937245,17.791L0.9619929199693724,17.791L0.9619929199693724,19.237L0.5709929199693724,19.237C0.29485091996937246,19.237,0.07099291996937244,19.4609,0.07099291996937244,19.737L0.07099291996937244,20.937C0.07099291996937244,21.2606,0.33335391996937247,21.523,0.6569929199693725,21.523L3.7999929199693723,21.523C3.7999929199693723,21.484,3.7999929199693723,21.444,3.7999929199693723,21.405C3.7999929199693723,19.8034,5.0983629199693725,18.505,6.699992919969373,18.505C8.301622919969372,18.505,9.599992919969372,19.8034,9.599992919969372,21.405C9.599992919969372,21.444,9.599992919969372,21.484,9.599992919969372,21.523L12.152992919969373,21.523L12.152992919969373,21.636C12.152992919969373,21.8459,12.323092919969373,22.016,12.532992919969372,22.016L17.868992919969372,22.016C18.078892919969373,22.016,18.24899291996937,21.8459,18.24899291996937,21.636L18.24899291996937,21.523Q20.138992919969372,21.529,27.493992919969372,21.523C27.49419291996937,21.3149,27.516292919969374,21.1074,27.55999291996937,20.904C27.846792919969374,19.5672,29.028292919969374,18.6122,30.39549291996937,18.6122C31.76269291996937,18.6122,32.944192919969375,19.5672,33.230992919969374,20.904C33.274692919969375,21.1074,33.29679291996937,21.3149,33.29699291996937,21.523L35.309992919969375,21.523L35.309992919969375,20.868L35.809992919969375,20.868L35.61599291996937,19.543L35.315992919969375,19.543L35.315992919969375,19.233L33.61599291996937,19.233L33.61599291996937,18.503L52.29999291996937,18.503L52.29999291996937,21.522L53.22099291996937,21.522C53.22099291996937,19.9204,54.51939291996937,18.622,56.120992919969375,18.622C57.72259291996937,18.622,59.02099291996937,19.9204,59.02099291996937,21.522L60.66599291996937,21.522C60.66599291996937,19.9204,61.96439291996937,18.622,63.565992919969375,18.622C65.16759291996937,18.622,66.46599291996937,19.9204,66.46599291996937,21.522L67.22499291996937,21.522L67.22499291996937,20.665L67.60899291996937,20.665L67.41699291996937,18.943L67.22499291996937,18.943L67.22499291996937,18.503L67.66999291996937,18.503C68.43879291996937,18.503,69.06199291996937,17.8798,69.06199291996937,17.111L69.06199291996937,17.032L70.18999291996937,17.032L70.19299291996937,8.964ZM13.593992919969372,4L13.934992919969373,4L13.934992919969373,11.548L13.593992919969372,11.548L13.593992919969372,4ZM13.258992919969373,3.348L13.258992919969373,3.468L7.358992919969372,3.468L13.258992919969373,3.348ZM11.873992919969373,6.22L11.873992919969373,10.4C11.872892919969372,10.5437,11.756692919969373,10.6599,11.612992919969372,10.661L10.719992919969373,10.661C10.575892919969373,10.661,10.458992919969372,10.5441,10.458992919969372,10.4L10.458992919969372,6.22C10.458392919969372,6.07562,10.575592919969372,5.95844,10.719992919969373,5.959L11.611992919969373,5.959C11.756092919969372,5.959,11.872992919969372,6.07585,11.873992919969373,6.22ZM0.7349929199693724,17.231L0.16299291996937246,17.231L0.16299291996937246,14.585L0.7349929199693724,14.585C0.9713709199693724,14.585,1.1629929199693725,14.7766,1.1629929199693725,15.013L1.1629929199693725,16.8C1.1629929199693725,17.0364,0.9713709199693724,17.228,0.7349929199693724,17.231ZM2.5999929199693725,18.381L1.1629929199693725,18.381L1.1629929199693725,17.8L2.5999929199693725,17.8L2.5999929199693725,18.381ZM1.5599929199693725,10.66C1.4592829199693724,10.6596,1.3676429199693725,10.6018,1.3239929199693725,10.511C1.2812529199693725,10.4202,1.2932429199693725,10.3131,1.3549929199693724,10.234L4.540992919969373,6.246C4.686872919969373,6.0641,4.907832919969373,5.95878,5.1409929199693725,5.96L9.040992919969373,5.96C9.462772919969373,5.95945,9.804992919969372,6.30122,9.804992919969372,6.723L9.804992919969372,9.9C9.804442919969372,10.3217,9.462712919969372,10.6634,9.040992919969373,10.664L1.5599929199693725,10.66ZM8.346992919969372,12.36L8.346992919969372,12.166L9.806992919969373,12.166L9.806992919969373,12.553L8.346992919969372,12.36ZM69.61599291996937,16.458L69.06899291996938,16.458L69.06899291996938,9.544L69.61599291996937,9.544L69.61599291996937,16.458Z" fill="#0B1F8F" fill-opacity="1"/></g><g><rect x="37.38799285888672" y="18.510000228881836" width="2.38700008392334" height="0.7390000224113464" rx="0" fill="#0B1F8F" fill-opacity="1"/></g></g></svg>