<svg xmlns="http://www.w3.org/2000/svg" xmlns:xlink="http://www.w3.org/1999/xlink" fill="none" version="1.1" width="63.82806396484375" height="30.417449951171875" viewBox="0 0 63.82806396484375 30.417449951171875"><g><path d="M9.12402,20.9544C11.7242,21.0077,13.7941,23.1495,13.7586,25.7501C13.7231,28.3506,11.5955,30.4351,8.99475,30.4173C6.39398,30.3996,4.29504,28.2862,4.29504,25.6854C4.32202,23.0455,6.48407,20.9273,9.12402,20.9544ZM26.418,0.0544434L26.65,0.14743C26.856,0.230438,26.894,0.404419,26.828,0.615417L26.628,1.26141C26.5145,1.81342,26.4722,2.37769,26.502,2.9404L26.502,3.3624C29.2471,3.00714,32.018,2.89304,34.783,3.02139C36.542,3.0524,36.769,2.86639,36.769,4.76938L36.769,20.1244C36.769,21.1384,36.707,21.5434,37.769,21.5434L39.269,21.5434L39.722,21.0564C42.7725,18.022,47.6873,17.9776,50.7921,20.9564C52.4175,19.5501,54.5008,18.7862,56.65,18.8084C58.8257,18.9072,60.8651,19.8961,62.29,21.5434L63.213,21.5434C63.819,21.5434,63.828,21.7964,63.828,22.4224L63.828,26.6443C63.828,26.9663,63.839,27.2113,63.47,27.2113Q63.252,27.2113,63.0341,27.2183C62.264,27.2183,62.5341,26.4573,62.5341,25.6903C62.3486,22.5712,59.8274,20.1014,56.7051,19.9803C54.5022,19.9438,52.4721,21.1691,51.4781,23.1353C51.3781,23.3353,50.6511,23.3833,50.5401,23.1633C49.5374,21.2011,47.5156,19.9702,45.3121,19.9803C42.1259,19.9481,39.5165,22.5042,39.4831,25.6903C39.4831,27.0153,39.4141,27.2183,38.0541,27.2183L14.742,27.2183C14.8825,26.7211,14.9536,26.2069,14.953,25.6903C14.8948,22.5127,12.3022,19.9672,9.12402,19.9672C5.94586,19.9672,3.35321,22.5127,3.29498,25.6903C3.29456,26.2069,3.36554,26.7212,3.50598,27.2183L0.684021,27.2183C-0.0839844,27.2183,0.00299072,26.9183,0.00299072,26.1653Q0.0169678,24.9453,0.0310059,23.7263C0.0310059,23.2203,-0.0239868,22.7113,0.544006,22.6983L1.45502,22.6333Q1.56201,18.9613,1.66901,15.2903C1.66901,14.5653,2.56903,14.0763,3.30701,14.0763L14.387,13.2553C15.087,13.2273,15.639,13.0003,15.81,12.2813L16.97,7.33331C17.0525,6.582,17.7164,6.03183,18.47,6.0903L21.184,6.0903C21.184,6.06729,21.184,6.04431,21.184,6.0213C22.3149,4.78317,23.8048,3.92999,25.445,3.5813L25.445,2.8313C25.4205,2.25024,25.4753,1.66855,25.608,1.10229L25.882,0.202301C25.947,-0.0456848,26.223,-0.0267029,26.418,0.0544434ZM56.701,20.9513C59.3012,21.0047,61.371,23.1465,61.3354,25.7471C61.2999,28.3476,59.1722,30.432,56.5715,30.4142C53.9708,30.3965,51.8719,28.2831,51.872,25.6823C51.899,23.0423,54.061,20.9241,56.701,20.9513ZM45.308,20.9513C47.9084,21.0041,49.9788,23.1457,49.9435,25.7464C49.9083,28.3471,47.7808,30.4319,45.1799,30.4142C42.5791,30.3967,40.48,28.2833,40.48,25.6823C40.507,23.0427,42.6684,20.9247,45.308,20.9513ZM29.884,7.56143L34.142,7.56143C34.3428,7.55981,34.5073,7.72064,34.51,7.92142L34.51,9.58542C34.5073,9.78622,34.3428,9.94708,34.142,9.9454L29.884,9.9454C29.6832,9.94708,29.5188,9.78622,29.5161,9.58542L29.5161,7.92142C29.5188,7.72061,29.6832,7.55975,29.884,7.56143ZM18.209,7.66144L18.7191,7.66144C19.0471,7.66144,19.1501,7.70944,19.1501,8.06143L19.1501,12.9684C19.1501,13.5094,19.1401,13.5534,18.5781,13.5534L17.178,13.5534C16.764,13.5454,16.678,13.3534,16.752,12.9854L17.697,8.10843C17.766,7.75143,17.842,7.65942,18.209,7.66144ZM20.744,7.65942L24.295,7.65942C24.7374,7.58981,25.1228,7.9642,25.066,8.40842L25.066,12.8854C25.066,13.3924,24.9661,13.5314,24.437,13.5394C23.154,13.5194,21.872,13.5474,20.589,13.5534C20.089,13.5534,19.997,13.4374,19.997,12.9684L19.997,8.33841C19.997,7.68042,20.159,7.65842,20.744,7.65942Z" fill-rule="evenodd" fill="#0B1F8F" fill-opacity="1"/></g></svg>