<svg xmlns="http://www.w3.org/2000/svg" xmlns:xlink="http://www.w3.org/1999/xlink" fill="none" version="1.1" width="49.938751220703125" height="25.702133178710938" viewBox="0 0 49.938751220703125 25.702133178710938"><g><path d="M48.5547,22.7246C49.8087,22.5246,49.9307,19.7096,49.9217,18.0526C49.9167,17.1286,50.1497,16.8126,49.0357,16.6756C48.6867,16.6326,48.3357,16.6836,48.3277,16.5756C48.2119,14.0915,47.8854,11.6216,47.3517,9.19264C46.6697,6.28564,43.9827,3.53864,42.7687,1.68064C42.1077,0.667638,42.8947,0.180638,42.4237,0.150638C37.5767,-0.200363,30.2757,0.193637,25.0467,0.0376369C23.0637,-0.0459529,21.0812,0.215603,19.1877,0.810637C18.3197,1.07274,17.4864,1.43837,16.7057,1.89964C12.3567,4.47964,7.53171,7.99964,5.38771,9.38764C3.80245,10.5167,2.41675,11.9024,1.28771,13.4876C0.845231,14.6105,0.775121,15.8459,1.08771,17.0116C0.473706,17.0586,0.325706,17.5916,0.336706,18.3116C0.258067,19.3363,0.339032,20.3669,0.576706,21.3666C0.822706,22.1916,-0.615294,22.6666,0.319706,22.6976L2.04671,22.7516C2.88471,22.6016,3.14671,22.6446,3.07071,21.5896C3.04671,21.2286,3.04071,20.8566,3.04071,20.4746C3.16148,16.6025,6.39537,13.5597,10.2677,13.6746C14.1402,13.5596,17.3744,16.6023,17.4957,20.4746C17.4957,21.0006,17.4957,21.5116,17.4587,22.0016C17.3337,23.6756,16.7797,23.5016,18.4887,23.5836L31.3597,23.5536C32.6027,23.4116,32.9347,23.5536,32.7597,21.9656C32.712,21.4701,32.691,20.9724,32.6967,20.4746C32.9303,16.6543,36.0968,13.6756,39.9242,13.6756C43.7517,13.6756,46.9181,16.6543,47.1517,20.4746C47.1517,20.8126,47.1517,21.1426,47.1397,21.4626C47.0937,22.7516,46.7917,23.0116,48.5457,22.7296M16.2697,9.46564C16.4033,9.08369,16.4913,8.68726,16.5317,8.28464C16.5897,7.37764,14.4727,7.30964,13.3797,7.37664C15.4997,5.51364,17.3027,3.06364,20.1207,2.14564C22.4427,1.41464,30.6897,1.64564,33.1787,1.60064C33.6107,1.59564,33.8587,2.01764,34.0137,2.32664C34.9847,4.12055,35.5159,6.11936,35.5637,8.15864C35.4927,8.91764,35.0817,9.05864,34.2637,9.06564C31.0317,9.09064,16.2317,9.61064,16.2697,9.46564ZM39.9357,15.2416C42.9109,15.1564,45.3941,17.4947,45.4877,20.4696C45.303,23.4042,42.8691,25.6897,39.9287,25.6897C36.9883,25.6897,34.5544,23.4042,34.3697,20.4696C34.4633,17.4915,36.9514,15.1519,39.9357,15.2416ZM10.2707,15.2416C13.249,15.1519,15.7372,17.4915,15.8307,20.4696C15.7382,23.4486,13.2498,25.7894,10.2707,25.6996C7.29204,25.7888,4.80419,23.4482,4.71171,20.4696C4.80527,17.4919,7.2928,15.1524,10.2707,15.2416ZM38.2807,1.56764C37.7677,1.59764,36.8687,1.53764,36.5347,1.58264C35.8747,1.67164,36.1927,1.97564,36.4227,2.67664C37.1687,4.94264,37.7067,7.10564,38.4447,8.00664C39.1327,8.84664,39.3547,8.61464,41.3327,8.74464C41.6627,8.76664,43.3967,8.74464,43.9267,8.70364C45.0007,8.61064,45.1317,8.39764,44.7487,7.37164C43.9587,5.25764,41.0837,1.57764,38.2807,1.56764Z" fill-rule="evenodd" fill="#0B1F8F" fill-opacity="1"/></g></svg>