<svg xmlns="http://www.w3.org/2000/svg" xmlns:xlink="http://www.w3.org/1999/xlink" fill="none" version="1.1" width="57.230010986328125" height="27.309005737304688" viewBox="0 0 57.230010986328125 27.309005737304688"><defs><mask id="master_svg0_1_100" style="mask-type:alpha" maskUnits="userSpaceOnUse"><g><rect x="0.000007080030627548695" y="0" width="57.229000091552734" height="27.30900001525879" rx="0" fill="#FFFFFF" fill-opacity="1"/></g></mask><mask id="master_svg1_1_103" style="mask-type:alpha" maskUnits="userSpaceOnUse"><g><rect x="0.000007080030627548695" y="0" width="57.229000091552734" height="27.30900001525879" rx="0" fill="#FFFFFF" fill-opacity="1"/></g></mask><mask id="master_svg2_1_106" style="mask-type:alpha" maskUnits="userSpaceOnUse"><g><rect x="0.000007080030627548695" y="0" width="57.229000091552734" height="27.30900001525879" rx="0" fill="#FFFFFF" fill-opacity="1"/></g></mask><mask id="master_svg3_1_109" style="mask-type:alpha" maskUnits="userSpaceOnUse"><g><rect x="0.000007080030627548695" y="0" width="57.229000091552734" height="27.30900001525879" rx="0" fill="#FFFFFF" fill-opacity="1"/></g></mask></defs><g><g mask="url(#master_svg0_1_100)"><g><path d="M17.000007080030628,24.2C16.676007080030626,24.2663,16.339107080030626,24.1894,16.076007080030628,23.989C15.916007080030628,23.826,15.876007080030627,23.547,15.883007080030627,23.083C15.963907080030628,20.0669,13.546607080030627,17.5753,10.529407080030628,17.5649C7.512297080030628,17.5545,5.077857080030627,20.0294,5.1380070800306274,23.046C5.148007080030627,24.027,4.970007080030627,24.208,3.9970070800306274,24.203C3.6970070800306276,24.203,3.3910070800306276,24.21,3.0890070800306275,24.203C1.8258170800306275,24.2066,0.7255350800306275,23.3421,0.43000708003062754,22.114C0.22078708003062755,21.1374,0.08044148003062755,20.1473,0.010007080030627549,19.151C-0.035998419969372454,18.5417,0.13549208003062754,17.9358,0.49400708003062754,17.441C0.6928450800306275,17.1026,0.8029200800306275,16.7194,0.8140070800306275,16.327C0.8463420800306275,15.6649,0.8416680800306275,15.0016,0.8000070800306276,14.34C0.7294010800306275,13.1432,0.9673340800306276,11.9484,1.4910070800306277,10.87C2.5810070800306275,8.651,3.6730070800306276,6.43,4.831007080030628,4.244C6.108787080030628,1.90022,8.487167080030627,0.363567,11.149007080030627,0.162C11.862007080030628,0.0664052,12.580707080030628,0.0202949,13.300007080030628,0.024C26.20700708003063,0.016,39.11500708003063,0.034,52.02300708003063,0C53.618307080030625,-0.115195,55.02340708003063,1.04136,55.217007080030626,2.629C56.18310708003063,8.14824,56.644007080030626,13.7441,56.59400708003063,19.347C56.59400708003063,19.723,56.525007080030626,20.12,57.05400708003063,20.237C57.135007080030626,20.255,57.23700708003063,20.451,57.22800708003063,20.557C57.19990708003063,21.3838,57.10620708003063,22.207,56.94800708003063,23.019C56.75490708003063,23.7507,56.07240708003063,24.2445,55.31700708003063,24.199C53.690007080030625,24.229,52.062007080030625,24.222,50.434007080030625,24.209C49.864007080030625,24.209,49.617007080030625,23.919,49.62500708003063,23.278C49.68170708003063,22.1574,49.40840708003063,21.0448,48.839007080030626,20.078C47.43970708003063,17.885,44.681007080030625,16.9935,42.26290708003063,17.9527C39.84480708003063,18.9119,38.447507080030626,21.4521,38.93200708003063,24.008C26.63200708003063,24.042,17.94000708003063,24.096,17.000007080030628,24.2ZM26.76300708003063,3.547Q22.988007080030627,3.547,19.21300708003063,3.547C18.500007080030628,3.547,18.313007080030626,3.747,18.313007080030626,4.461Q18.313007080030626,7.668,18.313007080030626,10.875C18.313007080030626,11.618,18.52100708003063,11.829,19.252007080030626,11.829Q26.773007080030627,11.829,34.29500708003063,11.829C35.04000708003063,11.829,35.25300708003063,11.629,35.254007080030625,10.898Q35.260007080030626,7.691,35.254007080030625,4.484C35.254007080030625,3.708,35.086007080030626,3.548,34.321007080030626,3.547Q30.546007080030627,3.547,26.76300708003063,3.547ZM44.742007080030625,11.829L51.952007080030626,11.829C53.07300708003063,11.829,53.373007080030625,11.509,53.25200708003063,10.383Q52.940007080030625,7.564,52.59000708003063,4.75C52.47300708003063,3.809,52.157007080030624,3.55,51.214007080030626,3.55Q44.31400708003063,3.55,37.419007080030624,3.55C36.57000708003063,3.55,36.419007080030624,3.693,36.419007080030624,4.535Q36.400007080030626,7.652,36.400007080030626,10.775C36.400007080030626,11.661,36.574007080030626,11.83,37.467007080030626,11.83L44.742007080030625,11.829ZM15.219007080030627,7.63C15.219007080030627,6.57,15.219007080030627,5.511,15.219007080030627,4.452C15.219007080030627,3.732,15.032007080030628,3.545,14.319007080030628,3.544C12.371007080030628,3.544,10.419007080030628,3.554,8.474007080030628,3.539C7.5653470800306275,3.49837,6.709567080030627,3.96673,6.254007080030627,4.754C4.887997080030628,6.91279,3.7314070800306274,9.19717,2.8000070800306274,11.576C2.3760070800306274,12.643,2.6160070800306277,13.059,3.7680070800306273,12.96C7.288007080030628,12.66,10.804007080030628,12.304,14.320007080030628,11.953C14.872607080030628,11.9588,15.299907080030627,11.4698,15.220007080030628,10.923C15.229007080030627,9.823,15.220007080030628,8.728,15.219007080030627,7.63Z" fill="#0B1F8F" fill-opacity="1"/></g></g><g mask="url(#master_svg1_1_103)"><g><path d="M14.891006965637207,22.929995881347658C14.890986965637207,25.349815881347656,12.930796965637207,27.312215881347655,10.510986965637208,27.314965881347657C8.091176965637207,27.317715881347656,6.126530645637207,25.359765881347656,6.121018409737207,22.939955881347657C6.115506175637207,20.520155881347655,8.071206965637208,18.553276061347656,10.491006965637208,18.544998169347657C12.926486965637206,18.517494181347658,14.910196965637207,20.494445881347655,14.891006965637207,22.929995881347658Z" fill="#0B1F8F" fill-opacity="1"/></g></g><g mask="url(#master_svg2_1_106)"><g><path d="M3.0360074043273926,12.421000390014648C3.5040074043273925,11.398000390014648,3.8830074043273926,10.521000390014649,4.314007404327393,9.668998390014648C4.454567404327393,9.467897390014649,4.656197404327393,9.317459390014648,4.889007404327392,9.23999789001465C5.401007404327393,9.026998390014649,5.562007404327392,9.149997710014649,5.566007404327392,9.71199839001465C5.571007404327393,10.412000390014649,5.5570074043273925,11.112000390014648,5.574007404327393,11.81200039001465C5.583007404327393,12.159000390014649,5.486007404327393,12.334000390014648,5.102007404327392,12.336000390014648C4.481007404327393,12.336000390014648,3.8600074043273924,12.385000390014648,3.0360074043273926,12.421000390014648Z" fill="#0B1F8F" fill-opacity="1"/></g></g><g mask="url(#master_svg3_1_109)"><g><path d="M48.60100509643554,22.929995881347658C48.60099509643555,25.349815881347656,46.640795096435546,27.312215881347655,44.22098509643555,27.314965881347657C41.80117509643555,27.317705881347656,39.83653640643555,25.359765881347656,39.831020355235545,22.939955881347657C39.82550430643555,20.520155881347655,41.78120509643555,18.553276061347656,44.201005096435544,18.544998169347657C46.63648509643555,18.517497981347656,48.620195096435545,20.494445881347655,48.60100509643554,22.929995881347658Z" fill="#0B1F8F" fill-opacity="1"/></g></g></g></svg>