<svg xmlns="http://www.w3.org/2000/svg" xmlns:xlink="http://www.w3.org/1999/xlink" fill="none" version="1.1" width="47.36602783203125" height="25.788087844848633" viewBox="0 0 47.36602783203125 25.788087844848633"><g><path d="M46.927,12.0429L43.727,12.0429L42.527,11.0249L45.547,8.18292C45.6658,8.07114,45.7123,7.90238,45.6674,7.74555C45.6226,7.58871,45.494,7.47002,45.334,7.43792L41.234,6.61492L37.983,6.14592C37.8114,6.11977,37.6407,6.19844,37.549,6.34592L35.305,10.0099L29.78,10.4879L28.238,7.65692C28.232,7.64692,28.224,7.63992,28.218,7.62992C28.2095,7.61419,28.1998,7.59915,28.189,7.58492C27.7401,7.06401,27.2443,6.58535,26.708,6.15492C25.9224,5.64305,25.0843,5.21663,24.208,4.88292C24.1187,4.84781,24.0202,4.84324,23.928,4.86992L19.273,6.21992C19.0915,6.11154,18.8844,6.05354,18.673,6.05192L15.483,6.05192L15.413,5.65892L19.579,4.90992C19.7623,4.87674,19.9045,4.73101,19.933,4.54692L20.283,2.17892C20.326,1.89835,20.0936,1.65222,19.811,1.67892L17.483,1.90092L15.313,0.100923C15.1677,-0.0202661,14.9607,-0.0336078,14.801,0.0679228C12.1245,1.74061,9.58579,3.62425,7.20903,5.70092C6.97503,5.93092,6.77303,6.15992,6.58503,6.38592C6.57803,6.39292,6.57303,6.40092,6.56603,6.40892C5.54838,7.51113,4.97455,8.95089,4.95503,10.4509Q4.95503,10.4579,4.95503,10.4609C4.96111,10.5164,4.97811,10.5701,5.00503,10.6189C5.01103,10.6299,5.01803,10.6389,5.02403,10.6489C5.05106,10.6903,5.08487,10.7268,5.12403,10.7569C5.13003,10.7569,5.13203,10.7679,5.13803,10.7719L5.14803,10.7719L5.15703,10.7799L6.65703,11.7089C6.72614,11.7516,6.8058,11.7741,6.88703,11.7739L8.93803,11.7739L9.73803,12.4889L9.40003,13.0359C7.98344,12.2578,6.32777,12.0353,4.75603,12.4119C4.53573,12.4787,4.40533,12.7053,4.45824,12.9294C4.51114,13.1534,4.72911,13.2977,4.95603,13.2589C6.30192,12.9365,7.71943,13.1209,8.93803,13.7769L8.59503,14.3329C4.70258,12.297,0.0345329,15.0985,0.000190176,19.4911C-0.0341529,23.8837,4.58952,26.7579,8.51332,24.7831C12.4371,22.8082,12.8834,17.3824,9.33503,14.7929L9.66603,14.2579C10.1745,14.6413,10.614,15.1083,10.966,15.6389C11.1006,15.8335,11.3658,15.8853,11.5637,15.7556C11.7616,15.6258,11.8199,15.3619,11.695,15.1609C11.2758,14.5225,10.7474,13.9629,10.134,13.5079L10.401,13.0769L14.264,16.5089L13.837,19.1739L12.422,21.2889C12.2733,21.5117,12.3588,21.8147,12.602,21.9269C13.3524,22.2415,14.1574,22.4049,14.971,22.4079L24.227,22.4079C24.2648,22.4081,24.3024,22.4034,24.339,22.3939L27.274,21.6149C27.3738,21.5886,27.461,21.5276,27.52,21.4429L28.211,20.4529L31.799,20.1789C32.2227,24.1659,36.229,26.7354,40.0294,25.4577C43.8298,24.18,45.47,19.7121,43.399,16.2789L43.978,14.1489C44.0594,13.8495,43.8109,13.5633,43.503,13.6019L40.882,13.9339C38.2412,12.5738,35.0081,13.2583,33.145,15.5719L32.363,15.0659L37.163,12.2299L41.739,11.5009L43.283,12.8099L44.971,14.2479C45.0502,14.3137,45.1501,14.3492,45.253,14.3479L46.93,14.3479C47.1708,14.3479,47.366,14.1527,47.366,13.9119L47.366,12.4789C47.366,12.2381,47.1708,12.0429,46.927,12.0429ZM8.50703,9.08292L5.85903,9.82692C6.03588,8.83513,6.46458,7.90541,7.10403,7.12692L9.80403,7.12692C9.83509,7.12683,9.86353,7.14429,9.87751,7.17203C9.89149,7.19977,9.88859,7.23302,9.87003,7.25792L8.50703,9.08292ZM26.707,17.5929L23.379,18.3519C23.308,18.3697,23.2328,18.3506,23.179,18.3009L20.333,15.7149C20.2179,15.6097,20.2473,15.4211,20.389,15.3559L24.571,13.4449L17.865,7.66792C17.8171,7.62583,17.7904,7.56466,17.792,7.50092L15.135,7.25292C15.0816,7.24772,15.0277,7.25247,14.976,7.26692L9.88303,8.69592L10.565,7.78492C10.7818,7.49606,10.8167,7.10948,10.6551,6.7865C10.4935,6.46352,10.1632,6.25964,9.80203,6.25992L7.88303,6.25992C8.02203,6.12392,8.16803,5.98592,8.32703,5.84292L13.488,5.33292C13.5593,5.32661,13.628,5.30292,13.688,5.26392L17.488,2.77692L19.342,2.60092L19.113,4.10692L14.825,4.87892C14.5886,4.92154,14.4312,5.14736,14.473,5.38392L14.684,6.56392C14.7209,6.77186,14.9018,6.92326,15.113,6.92292L18.671,6.92292C18.7078,6.92311,18.7444,6.92954,18.779,6.94192L18.832,7.53292C18.7745,7.56827,18.7074,7.58471,18.64,7.57992L18.404,7.55792L25.118,13.3359C25.2381,13.4395,25.211,13.6325,25.067,13.6989L20.875,15.6139L23.394,17.9009L26.694,17.1469C26.7502,17.1341,26.8093,17.1442,26.858,17.1749L28.7,18.3259C28.5619,18.3986,28.4745,18.5409,28.472,18.6969L26.707,17.5929ZM42.548,16.1009L41.293,17.2109L36.966,18.4509L36.949,18.4509L34.757,19.0769L34.043,19.1309L32.169,19.2739L28.861,19.5269L29.156,19.1049L33.168,18.4589C33.2182,18.4506,33.2666,18.4337,33.311,18.4089L37.656,15.9859L40.922,14.8039L42.972,14.5449L42.548,16.1009ZM32.014,17.7669L31.766,17.8069L31.766,16.2349L32.442,16.6719C32.2659,17.0228,32.1229,17.3894,32.014,17.7669Z" fill="#0B1F8F" fill-opacity="1"/></g></svg>