<svg xmlns="http://www.w3.org/2000/svg" xmlns:xlink="http://www.w3.org/1999/xlink" fill="none" version="1.1" width="83.10299682617188" height="28.519989013671875" viewBox="0 0 83.10299682617188 28.519989013671875"><defs><mask id="master_svg0_1_128" style="mask-type:alpha" maskUnits="userSpaceOnUse"><g><rect x="0.000007080030627548695" y="0" width="83.10299682617188" height="28.520000457763672" rx="0" fill="#FFFFFF" fill-opacity="1"/></g></mask><mask id="master_svg1_1_131" style="mask-type:alpha" maskUnits="userSpaceOnUse"><g><rect x="0.000007080030627548695" y="0" width="83.10299682617188" height="28.520000457763672" rx="0" fill="#FFFFFF" fill-opacity="1"/></g></mask><mask id="master_svg2_1_134" style="mask-type:alpha" maskUnits="userSpaceOnUse"><g><rect x="0.000007080030627548695" y="0" width="83.10299682617188" height="28.520000457763672" rx="0" fill="#FFFFFF" fill-opacity="1"/></g></mask><mask id="master_svg3_1_137" style="mask-type:alpha" maskUnits="userSpaceOnUse"><g><rect x="0.000007080030627548695" y="0" width="83.10299682617188" height="28.520000457763672" rx="0" fill="#FFFFFF" fill-opacity="1"/></g></mask></defs><g><g><g><g mask="url(#master_svg0_1_128)"><g><path d="M81.04396605074425,7.328000007867813C81.04396605074425,7.328000007867813,81.04396605074425,7.2990000078678134,81.04396605074425,7.2990000078678134Q80.84396605074424,5.866000007867813,79.11496605074424,5.962000007867813L55.738966050744246,5.962000007867813C55.572666050744246,5.962300007867813,55.431366050744245,5.840530007867813,55.406966050744245,5.676000007867813C55.262666050744244,4.634540007867813,55.18186605074424,3.585270007867813,55.16496605074424,2.5340000078678133Q55.104966050744245,0.2870000078678131,53.81396605074424,0.11900000786781312Q48.080966050744244,-0.1479999921321869,39.57696605074424,0.11900000786781312Q37.211966050744245,0.1930000078678131,33.75296605074424,0.6000000078678132C33.73736605074424,0.5990010078678131,33.72166605074424,0.5990010078678131,33.705966050744244,0.6000000078678132C27.72396605074424,1.5640000078678131,21.239966050744243,7.106000007867813,20.477966050744243,7.773000007867813C20.429266050744243,7.815590007867813,20.369166050744244,7.843040007867813,20.304966050744245,7.852000007867813C19.425966050744243,7.974000007867813,12.842966050744243,8.900000007867813,6.596006050744243,10.204000007867814C-0.11399294925575704,11.610000007867812,0.32000705074424296,17.934000007867812,0.031007050744242967,20.348000007867814Q-0.257992949255757,22.76200000786781,1.576006050744243,22.76200000786781L4.495006050744243,22.917000007867813C4.688436050744243,22.928000007867812,4.850646050744243,22.77270000786781,4.848006050744243,22.579000007867812C4.848006050744243,22.525000007867813,4.848006050744243,22.47100000786781,4.848006050744243,22.417000007867813C4.697766050744243,18.152100007867812,8.027506050744243,14.570100007867813,12.291966050744243,14.409000007867814C16.556066050744242,14.570600007867814,19.885266050744242,18.152500007867815,19.734966050744244,22.417000007867813C19.735066050744244,22.734400007867812,19.717766050744242,23.051500007867812,19.68296605074424,23.367000007867812C19.662066050744244,23.558000007867815,19.806166050744242,23.727200007867815,19.997966050744242,23.737000007867813L21.308966050744242,23.806000007867812C21.500966050744243,23.816300007867813,21.662266050744243,23.663300007867814,21.661966050744244,23.47100000786781L21.661966050744244,23.106000007867813C21.661966050744244,23.050800007867814,21.706766050744243,23.00600000786781,21.761966050744242,23.00600000786781L22.315966050744244,23.00600000786781C22.354166050744244,23.00600000786781,22.384966050744243,23.036900007867814,22.384966050744243,23.075000007867814L22.384966050744243,23.48000000786781C22.384866050744243,23.669800007867813,22.542366050744242,23.821800007867814,22.731966050744244,23.815000007867813L49.67696605074424,22.915000007867814C49.85656605074424,22.908600007867815,49.99906605074424,22.761700007867812,49.99996605074424,22.582000007867812L49.99996605074424,21.97400000786781C49.999866050744245,21.81390000786781,50.11296605074424,21.676100007867813,50.269966050744245,21.645000007867814L51.91096605074424,21.31700000786781L51.95096605074424,21.311000007867815L53.226966050744245,21.211000007867813C53.405666050744244,21.196700007867815,53.54186605074424,21.045100007867813,53.53696605074424,20.866000007867815C53.53696605074424,20.807000007867813,53.53696605074424,20.748000007867812,53.53696605074424,20.68900000786781C53.45346605074424,16.532300007867814,56.64256605074424,13.039500007867813,60.78976605074424,12.745600007867813C64.93686605074424,12.451800007867813,68.58656605074424,15.460000007867814,69.08996605074424,19.587000007867815C69.11756605074424,19.790400007867813,69.32036605074424,19.921000007867814,69.51696605074424,19.862000007867813L78.16396605074425,17.282000007867815C78.21546605074424,17.26670000786781,78.26236605074425,17.23920000786781,78.30096605074424,17.202000007867813C79.20266605074424,16.298100007867813,80.22296605074425,15.521000007867814,81.33396605074424,14.892000007867813C81.45026605074425,14.830400007867814,81.51956605074425,14.706300007867814,81.51096605074424,14.575000007867812L81.04396605074425,7.328000007867813ZM17.99996605074424,11.546000007867812C17.99996605074424,11.435500007867812,18.089566050744242,11.346000007867813,18.199966050744244,11.346000007867813L19.33996605074424,11.346000007867813C19.450466050744243,11.346000007867813,19.539966050744244,11.435500007867812,19.539966050744244,11.546000007867812L19.539966050744244,11.883000007867814C19.539966050744244,11.993500007867812,19.450466050744243,12.083000007867813,19.33996605074424,12.083000007867813L18.199966050744244,12.083000007867813C18.089566050744242,12.083000007867813,17.99996605074424,11.993500007867812,17.99996605074424,11.883000007867814L17.99996605074424,11.546000007867812ZM0.9200070507442429,15.500000007867813Q1.564006050744243,13.085000007867814,2.852006050744243,12.373000007867812L6.440006050744243,11.973000007867814Q1.909006050744243,16.469000007867812,0.9200070507442429,15.500000007867813ZM40.48696605074424,1.500000007867813L51.793966050744245,1.500000007867813C52.19286605074424,1.497560007867813,52.510766050744245,1.832830007867813,52.48696605074424,2.231000007867813L52.48696605074424,3.781000007867813Q52.76496605074424,7.501000007867813,40.48696605074424,7.631000007867813L40.48696605074424,1.500000007867813ZM22.443966050744244,8.872000007867813C22.303566050744244,8.794070007867813,22.278366050744243,8.602530007867813,22.393966050744243,8.491000007867813C23.343966050744243,7.561000007867813,30.070966050744243,1.4970000078678132,38.177966050744246,1.5350000078678132L37.89996605074424,7.950000007867813Q24.125966050744243,9.770000007867813,22.443966050744244,8.872000007867813ZM49.26496605074424,22.072000007867814L23.104966050744242,22.872000007867815C23.049766050744243,22.872000007867815,23.004966050744244,22.827200007867813,23.004966050744244,22.772000007867813L22.99996605074424,22.524000007867812C22.99996605074424,22.468800007867813,23.044766050744244,22.424000007867814,23.099966050744243,22.424000007867814L49.25996605074425,21.624000007867814C49.31526605074424,21.624000007867814,49.35996605074424,21.668800007867812,49.35996605074424,21.72400000786781L49.366966050744246,21.969000007867812L49.26496605074424,22.072000007867814Z" fill="#0B1F8F" fill-opacity="1"/></g></g><g mask="url(#master_svg1_1_131)"><g><path d="M78.51404040034313,17.35497908203125C79.39222040034312,16.38936908203125,80.44898040034313,15.60290508203125,81.62611040034312,15.03897098203125Q83.30716040034312,14.77496308203125,83.08216040034313,16.96395908203125Q82.85716040034313,19.152959082031252,81.11915040034313,19.08794908203125L80.41016040034313,19.08794908203125L80.41016040034313,19.31295908203125L72.33216040034313,19.31295908203125L78.51404040034313,17.35497908203125Z" fill="#0B1F8F" fill-opacity="1"/></g></g><g mask="url(#master_svg2_1_134)"><g><path d="M67.87788793940562,22.12697974609375Q67.87788793940562,22.28409974609375,67.87018793940562,22.44101974609375Q67.86248793940563,22.59793974609375,67.84708793940563,22.75428974609375Q67.83168793940563,22.91064974609375,67.80868793940563,23.06605974609375Q67.78558793940563,23.22146974609375,67.75498793940562,23.37555974609375Q67.72428793940563,23.52964974609375,67.68608793940562,23.68204974609375Q67.64798793940562,23.83445974609375,67.60238793940563,23.98479974609375Q67.55678793940562,24.135149746093752,67.50378793940563,24.283079746093748Q67.45088793940563,24.43099974609375,67.39078793940563,24.576149746093748Q67.33068793940564,24.721309746093752,67.26348793940562,24.86332974609375Q67.19628793940562,25.005359746093752,67.12218793940562,25.14391974609375Q67.04818793940562,25.28247974609375,66.96738793940563,25.41723974609375Q66.88658793940563,25.55198974609375,66.79928793940563,25.682629746093752Q66.71208793940562,25.81328974609375,66.61848793940563,25.93948974609375Q66.52488793940563,26.06568974609375,66.42518793940563,26.18708974609375Q66.32548793940563,26.30858974609375,66.21998793940563,26.42498974609375Q66.11448793940562,26.54138974609375,66.00338793940563,26.65248974609375Q65.89228793940563,26.76358974609375,65.77588793940564,26.86908974609375Q65.65948793940562,26.97458974609375,65.53808793940563,27.07428974609375Q65.41658793940563,27.17388974609375,65.29038793940563,27.26748974609375Q65.16418793940562,27.36108974609375,65.03357793940563,27.44838974609375Q64.90293793940563,27.53568974609375,64.76817793940563,27.616489746093748Q64.63341793940563,27.69718974609375,64.49486793940562,27.77128974609375Q64.35629793940562,27.845289746093748,64.21427793940563,27.912489746093748Q64.07224793940563,27.97968974609375,63.92709793940563,28.03978974609375Q63.78193793940563,28.09988974609375,63.634017939405624,28.15288974609375Q63.48608793940563,28.20578974609375,63.335737939405625,28.25138974609375Q63.185397939405625,28.29698974609375,63.03298793940563,28.33518974609375Q62.88058793940563,28.37338974609375,62.726497939405625,28.40398974609375Q62.572397939405626,28.434689746093753,62.41698793940563,28.45768974609375Q62.261577939405626,28.48078974609375,62.10522793940563,28.496189746093748Q61.94886793940563,28.511589746093748,61.79194793940563,28.519289746093747Q61.63502793940563,28.52698974609375,61.477907939405625,28.52698974609375Q61.32079793940563,28.52698974609375,61.16387793940563,28.519289746093747Q61.00695793940563,28.511589746093748,60.85059793940563,28.496189746093748Q60.69424793940563,28.48078974609375,60.538837939405624,28.45768974609375Q60.383417939405625,28.434689746093753,60.22932793940563,28.40398974609375Q60.075237939405625,28.37338974609375,59.922837939405625,28.33518974609375Q59.77042793940563,28.29698974609375,59.62008793940563,28.25138974609375Q59.469737939405626,28.20578974609375,59.32180793940563,28.15288974609375Q59.17387793940563,28.09988974609375,59.02872793940563,28.03978974609375Q58.883577939405626,27.97968974609375,58.74154793940563,27.912489746093748Q58.59951793940563,27.845289746093748,58.46095793940563,27.77128974609375Q58.322397939405626,27.69718974609375,58.187637939405626,27.616489746093748Q58.052877939405626,27.53568974609375,57.92224793940563,27.44838974609375Q57.791617939405626,27.36108974609375,57.66541793940563,27.26748974609375Q57.53922793940563,27.17388974609375,57.417777939405624,27.07428974609375Q57.29632793940563,26.97458974609375,57.17991793940563,26.86908974609375Q57.063507939405625,26.76358974609375,56.952407939405624,26.65248974609375Q56.84131793940563,26.54138974609375,56.735807939405625,26.42498974609375Q56.63029793940563,26.30858974609375,56.530627939405626,26.18708974609375Q56.43095793940563,26.06568974609375,56.337367939405624,25.93948974609375Q56.243777939405625,25.81328974609375,56.15648793940563,25.682629746093752Q56.06919993940563,25.55198974609375,55.988427939405625,25.41723974609375Q55.907656939405626,25.28247974609375,55.83359493940563,25.14391974609375Q55.75953293940563,25.005359746093752,55.69235893940563,24.86332974609375Q55.62518493940563,24.721309746093752,55.565060939405626,24.576149746093748Q55.504936939405624,24.43099974609375,55.45200693940563,24.283079746093748Q55.39907793940563,24.135149746093752,55.353470939405625,23.98479974609375Q55.30786393940563,23.83445974609375,55.269688939405626,23.68204974609375Q55.23151393940563,23.52964974609375,55.200862939405624,23.37555974609375Q55.17021163940563,23.22146974609375,55.14715853940563,23.06605974609375Q55.124105439405625,22.91064974609375,55.10870583940563,22.75428974609375Q55.09330613940563,22.59793974609375,55.08559704940563,22.44101974609375Q55.07788793940563,22.28409974609375,55.07788793940563,22.12697974609375Q55.07788793940563,21.96986974609375,55.08559704940563,21.81294974609375Q55.09330613940563,21.65602974609375,55.10870583940563,21.49967974609375Q55.124105439405625,21.343319746093748,55.14715853940563,21.18790974609375Q55.17021163940563,21.032499746093748,55.200862939405624,20.87840974609375Q55.23151393940563,20.724309746093752,55.269688939405626,20.571909746093752Q55.30786393940563,20.419509746093752,55.353470939405625,20.26915974609375Q55.39907793940563,20.11881974609375,55.45200693940563,19.97088974609375Q55.504936939405624,19.82295974609375,55.565060939405626,19.67780974609375Q55.62518493940563,19.53265974609375,55.69235893940563,19.39062974609375Q55.75953293940563,19.24860974609375,55.83359493940563,19.11004974609375Q55.907656939405626,18.97148974609375,55.988427939405625,18.83672974609375Q56.06919993940563,18.70196974609375,56.15648793940563,18.57133974609375Q56.243777939405625,18.44069974609375,56.337367939405624,18.31450974609375Q56.43095793940563,18.18831974609375,56.530627939405626,18.06686974609375Q56.63029793940563,17.94541974609375,56.735807939405625,17.82900974609375Q56.84131793940563,17.71259974609375,56.952407939405624,17.60149974609375Q57.063507939405625,17.49040974609375,57.17991793940563,17.38489974609375Q57.29632793940563,17.27938974609375,57.417777939405624,17.17971974609375Q57.53922793940563,17.08004974609375,57.66541793940563,16.98645974609375Q57.791617939405626,16.89286974609375,57.92224793940563,16.80557974609375Q58.052877939405626,16.71829674609375,58.187637939405626,16.63752574609375Q58.322397939405626,16.55675474609375,58.46095793940563,16.48269274609375Q58.59951793940563,16.40863174609375,58.74154793940563,16.34145774609375Q58.883577939405626,16.27428374609375,59.02872793940563,16.21415974609375Q59.17387793940563,16.15403674609375,59.32180793940563,16.10110774609375Q59.469737939405626,16.04817774609375,59.62008793940563,16.00257174609375Q59.77042793940563,15.95696474609375,59.922837939405625,15.91878974609375Q60.075237939405625,15.88061474609375,60.22932793940563,15.84996374609375Q60.383417939405625,15.81931294609375,60.538837939405624,15.79626004609375Q60.69424793940563,15.77320704609375,60.85059793940563,15.75780744609375Q61.00695793940563,15.74240784609375,61.16387793940563,15.73469881609375Q61.32079793940563,15.72698974609375,61.477907939405625,15.72698974609375Q61.63502793940563,15.72698974609375,61.79194793940563,15.73469881609375Q61.94886793940563,15.74240784609375,62.10522793940563,15.75780744609375Q62.261577939405626,15.77320704609375,62.41698793940563,15.79626004609375Q62.572397939405626,15.81931294609375,62.726497939405625,15.84996374609375Q62.88058793940563,15.88061474609375,63.03298793940563,15.91878974609375Q63.185397939405625,15.95696474609375,63.335737939405625,16.00257174609375Q63.48608793940563,16.04817774609375,63.634017939405624,16.10110774609375Q63.78193793940563,16.15403674609375,63.92709793940563,16.21415974609375Q64.07224793940563,16.27428374609375,64.21427793940563,16.34145774609375Q64.35629793940562,16.40863074609375,64.49486793940562,16.48269274609375Q64.63341793940563,16.55675474609375,64.76817793940563,16.63752574609375Q64.90293793940563,16.71829674609375,65.03357793940563,16.80557974609375Q65.16418793940562,16.89286974609375,65.29038793940563,16.98645974609375Q65.41658793940563,17.08004974609375,65.53808793940563,17.17971974609375Q65.65948793940562,17.27938974609375,65.77588793940564,17.38489974609375Q65.89228793940563,17.49040974609375,66.00338793940563,17.60149974609375Q66.11448793940562,17.71259974609375,66.21998793940563,17.82900974609375Q66.32548793940563,17.94541974609375,66.42518793940563,18.06686974609375Q66.52488793940563,18.18831974609375,66.61848793940563,18.31450974609375Q66.71208793940562,18.44069974609375,66.79928793940563,18.57133974609375Q66.88658793940563,18.70196974609375,66.96738793940563,18.83672974609375Q67.04818793940562,18.97148974609375,67.12218793940562,19.11004974609375Q67.19628793940562,19.24860974609375,67.26348793940562,19.39062974609375Q67.33068793940564,19.53265974609375,67.39078793940563,19.67780974609375Q67.45088793940563,19.82295974609375,67.50378793940563,19.97088974609375Q67.55678793940562,20.11881974609375,67.60238793940563,20.26915974609375Q67.64798793940562,20.419509746093752,67.68608793940562,20.571909746093752Q67.72428793940563,20.724309746093752,67.75498793940562,20.87840974609375Q67.78558793940563,21.032499746093748,67.80868793940563,21.18790974609375Q67.83168793940563,21.343319746093748,67.84708793940563,21.49967974609375Q67.86248793940563,21.65602974609375,67.87018793940562,21.81294974609375Q67.87788793940562,21.96986974609375,67.87788793940562,22.12697974609375Z" fill="#0B1F8F" fill-opacity="1"/></g></g><g mask="url(#master_svg3_1_137)"><g><path d="M18.692013000440785,22.12697974609375Q18.692013000440785,22.28409974609375,18.68431300044078,22.44101974609375Q18.67661300044078,22.59793974609375,18.66121300044078,22.75428974609375Q18.645813000440782,22.91064974609375,18.622713000440783,23.06605974609375Q18.599713000440786,23.22146974609375,18.569013000440783,23.37555974609375Q18.538413000440784,23.52964974609375,18.500213000440784,23.68204974609375Q18.462013000440784,23.83445974609375,18.416413000440784,23.98479974609375Q18.370813000440783,24.135149746093752,18.317913000440782,24.283079746093748Q18.264913000440785,24.43099974609375,18.204813000440783,24.576149746093748Q18.144713000440785,24.721309746093752,18.07751300044078,24.86332974609375Q18.010413000440785,25.005359746093752,17.936313000440784,25.14391974609375Q17.862213000440782,25.28247974609375,17.781513000440782,25.41723974609375Q17.700713000440786,25.55198974609375,17.613413000440783,25.682629746093752Q17.526113000440784,25.81328974609375,17.432513000440785,25.93948974609375Q17.338913000440783,26.06568974609375,17.239313000440784,26.18708974609375Q17.139613000440782,26.30858974609375,17.034113000440783,26.42498974609375Q16.928613000440784,26.54138974609375,16.817513000440783,26.65248974609375Q16.706413000440783,26.76358974609375,16.590013000440784,26.86908974609375Q16.473613000440785,26.97458974609375,16.352113000440784,27.07428974609375Q16.230713000440783,27.17388974609375,16.104513000440782,27.26748974609375Q15.978313000440783,27.36108974609375,15.847653000440785,27.44838974609375Q15.717023000440784,27.53568974609375,15.582263000440784,27.616489746093748Q15.447503000440785,27.69718974609375,15.308943000440784,27.77128974609375Q15.170383000440784,27.845289746093748,15.028363000440784,27.912489746093748Q14.886333000440784,27.97968974609375,14.741183000440785,28.03978974609375Q14.596033000440784,28.09988974609375,14.448103000440783,28.15288974609375Q14.300173000440784,28.20578974609375,14.149833000440784,28.25138974609375Q13.999483000440783,28.29698974609375,13.847083000440783,28.33518974609375Q13.694683000440783,28.37338974609375,13.540583000440783,28.40398974609375Q13.386493000440783,28.434689746093753,13.231083000440783,28.45768974609375Q13.075673000440784,28.48078974609375,12.919323000440784,28.496189746093748Q12.762963000440784,28.511589746093748,12.606043000440785,28.519289746093747Q12.449123000440784,28.52698974609375,12.292013000440784,28.52698974609375Q12.134903000440783,28.52698974609375,11.977973000440784,28.519289746093747Q11.821053000440784,28.511589746093748,11.664703000440785,28.496189746093748Q11.508343000440783,28.48078974609375,11.352933000440784,28.45768974609375Q11.197523000440784,28.434689746093753,11.043433000440784,28.40398974609375Q10.889343000440784,28.37338974609375,10.736933000440784,28.33518974609375Q10.584533000440784,28.29698974609375,10.434193000440784,28.25138974609375Q10.283843000440783,28.20578974609375,10.135913000440784,28.15288974609375Q9.987993000440785,28.09988974609375,9.842833000440784,28.03978974609375Q9.697683000440783,27.97968974609375,9.555663000440784,27.912489746093748Q9.413633000440784,27.845289746093748,9.275073000440784,27.77128974609375Q9.136513000440784,27.69718974609375,9.001753000440784,27.616489746093748Q8.866993000440784,27.53568974609375,8.736363000440784,27.44838974609375Q8.605733000440784,27.36108974609375,8.479533000440783,27.26748974609375Q8.353343000440784,27.17388974609375,8.231893000440785,27.07428974609375Q8.110443000440783,26.97458974609375,7.994033000440783,26.86908974609375Q7.877623000440784,26.76358974609375,7.766533000440784,26.65248974609375Q7.655433000440784,26.54138974609375,7.549923000440784,26.42498974609375Q7.444413000440784,26.30858974609375,7.344743000440784,26.18708974609375Q7.245073000440784,26.06568974609375,7.151483000440784,25.93948974609375Q7.057893000440783,25.81328974609375,6.970603000440784,25.682629746093752Q6.883321000440784,25.55198974609375,6.802549000440784,25.41723974609375Q6.721778000440784,25.28247974609375,6.6477170004407835,25.14391974609375Q6.573655000440784,25.005359746093752,6.506481000440784,24.86332974609375Q6.439308000440784,24.721309746093752,6.379184000440784,24.576149746093748Q6.319060000440784,24.43099974609375,6.266131000440784,24.283079746093748Q6.213202000440784,24.135149746093752,6.167595000440784,23.98479974609375Q6.121988000440783,23.83445974609375,6.0838130004407835,23.68204974609375Q6.045638000440784,23.52964974609375,6.014987000440784,23.37555974609375Q5.984336300440784,23.22146974609375,5.961283300440784,23.06605974609375Q5.938230300440784,22.91064974609375,5.922830700440784,22.75428974609375Q5.907431200440784,22.59793974609375,5.8997220804407835,22.44101974609375Q5.892013000440784,22.28409974609375,5.892013000440784,22.12697974609375Q5.892013000440784,21.96986974609375,5.8997220804407835,21.81294974609375Q5.907431200440784,21.65602974609375,5.922830700440784,21.49967974609375Q5.938230300440784,21.343319746093748,5.961283300440784,21.18790974609375Q5.984336300440784,21.032499746093748,6.014987000440784,20.87840974609375Q6.045638000440784,20.724309746093752,6.0838130004407835,20.571909746093752Q6.121988000440783,20.419509746093752,6.167595000440784,20.26915974609375Q6.213202000440784,20.11881974609375,6.266131000440784,19.97088974609375Q6.319060000440784,19.82295974609375,6.379184000440784,19.67780974609375Q6.439308000440784,19.53265974609375,6.506481000440784,19.39062974609375Q6.573655000440784,19.24860974609375,6.6477170004407835,19.11004974609375Q6.721778000440784,18.97148974609375,6.802549000440784,18.83672974609375Q6.883321000440784,18.70196974609375,6.970603000440784,18.57133974609375Q7.057893000440783,18.44069974609375,7.151483000440784,18.31450974609375Q7.245073000440784,18.18831974609375,7.344743000440784,18.06686974609375Q7.444413000440784,17.94541974609375,7.549923000440784,17.82900974609375Q7.655433000440784,17.71259974609375,7.766533000440784,17.60149974609375Q7.877623000440784,17.49040974609375,7.994033000440783,17.38489974609375Q8.110443000440783,17.27938974609375,8.231893000440785,17.17971974609375Q8.353343000440784,17.08004974609375,8.479533000440783,16.98645974609375Q8.605733000440784,16.89286974609375,8.736363000440784,16.80557974609375Q8.866993000440784,16.71829674609375,9.001753000440784,16.63752574609375Q9.136513000440784,16.55675474609375,9.275073000440784,16.48269274609375Q9.413633000440784,16.40863174609375,9.555663000440784,16.34145774609375Q9.697683000440783,16.27428374609375,9.842833000440784,16.21415974609375Q9.987993000440785,16.15403674609375,10.135913000440784,16.10110774609375Q10.283843000440783,16.04817774609375,10.434193000440784,16.00257174609375Q10.584533000440784,15.95696474609375,10.736933000440784,15.91878974609375Q10.889343000440784,15.88061474609375,11.043433000440784,15.84996374609375Q11.197523000440784,15.81931294609375,11.352933000440784,15.79626004609375Q11.508343000440783,15.77320704609375,11.664703000440785,15.75780744609375Q11.821053000440784,15.74240784609375,11.977973000440784,15.73469881609375Q12.134903000440783,15.72698974609375,12.292013000440784,15.72698974609375Q12.449123000440784,15.72698974609375,12.606043000440785,15.73469881609375Q12.762963000440784,15.74240784609375,12.919323000440784,15.75780744609375Q13.075673000440784,15.77320704609375,13.231083000440783,15.79626004609375Q13.386493000440783,15.81931294609375,13.540583000440783,15.84996374609375Q13.694683000440783,15.88061474609375,13.847083000440783,15.91878974609375Q13.999483000440783,15.95696474609375,14.149833000440784,16.00257174609375Q14.300173000440784,16.04817774609375,14.448103000440783,16.10110774609375Q14.596033000440784,16.15403674609375,14.741183000440785,16.21415974609375Q14.886333000440784,16.27428374609375,15.028363000440784,16.34145774609375Q15.170383000440784,16.40863074609375,15.308943000440784,16.48269274609375Q15.447503000440785,16.55675474609375,15.582263000440784,16.63752574609375Q15.717023000440784,16.71829674609375,15.847653000440785,16.80557974609375Q15.978313000440783,16.89286974609375,16.104513000440782,16.98645974609375Q16.230713000440783,17.08004974609375,16.352113000440784,17.17971974609375Q16.473613000440785,17.27938974609375,16.590013000440784,17.38489974609375Q16.706413000440783,17.49040974609375,16.817513000440783,17.60149974609375Q16.928613000440784,17.71259974609375,17.034113000440783,17.82900974609375Q17.139613000440782,17.94541974609375,17.239313000440784,18.06686974609375Q17.338913000440783,18.18831974609375,17.432513000440785,18.31450974609375Q17.526113000440784,18.44069974609375,17.613413000440783,18.57133974609375Q17.700713000440786,18.70196974609375,17.781513000440782,18.83672974609375Q17.862213000440782,18.97148974609375,17.936313000440784,19.11004974609375Q18.010413000440785,19.24860974609375,18.07751300044078,19.39062974609375Q18.144713000440785,19.53265974609375,18.204813000440783,19.67780974609375Q18.264913000440785,19.82295974609375,18.317913000440782,19.97088974609375Q18.370813000440783,20.11881974609375,18.416413000440784,20.26915974609375Q18.462013000440784,20.419509746093752,18.500213000440784,20.571909746093752Q18.538413000440784,20.724309746093752,18.569013000440783,20.87840974609375Q18.599713000440786,21.032499746093748,18.622713000440783,21.18790974609375Q18.645813000440782,21.343319746093748,18.66121300044078,21.49967974609375Q18.67661300044078,21.65602974609375,18.68431300044078,21.81294974609375Q18.692013000440785,21.96986974609375,18.692013000440785,22.12697974609375Z" fill="#0B1F8F" fill-opacity="1"/></g></g></g></g></g></svg>