<svg xmlns="http://www.w3.org/2000/svg" xmlns:xlink="http://www.w3.org/1999/xlink" fill="none" version="1.1" width="69.73989868164062" height="22.45186424255371" viewBox="0 0 69.73989868164062 22.45186424255371"><g><path d="M56.2243,12.0229C59.1039,12.0229,61.4383,14.3573,61.4383,17.2369C61.4383,20.1165,59.104,22.4509,56.2243,22.4509C53.3447,22.4509,51.0103,20.1165,51.0103,17.2369C51.0103,14.3572,53.3447,12.0229,56.2243,12.0229ZM51.3803,2.77786L51.0323,7.32286C52.0533,7.26886,53.0393,7.22286,53.9563,7.19186C54.2203,7.20127,54.4687,7.06694,54.6053,6.84087C54.8564,6.42424,55.067,5.98457,55.2343,5.52787C55.3193,5.27886,55.3013,5.16287,55.0863,4.86887C53.9413,4.02269,52.6967,3.32043,51.3803,2.77786ZM50.2573,7.36486L50.6853,2.46486C50.353,2.31209,50.0121,2.17854,49.6643,2.06486C48.4961,1.70988,47.285,1.51543,46.0643,1.48686L42.0783,1.43986C41.8609,1.43049,41.6527,1.52841,41.5213,1.70186C41.2003,2.53286,41.1213,3.66486,40.7073,7.08386C40.5933,8.01886,40.6543,7.76586,41.6923,7.75286C44.2483,7.72186,47.3553,7.52586,50.2573,7.36486ZM64.2993,19.5449C65.3573,19.4639,66.5563,19.3639,67.4993,19.2019C68.0546,19.1552,68.5911,18.9785,69.0653,18.6859C69.8313,17.9739,69.7433,15.7549,69.7303,14.6179C69.7303,14.3409,69.0253,14.3399,69.0083,14.0519C68.9083,12.2979,68.7833,10.3519,68.5923,8.55186C68.3623,6.38786,63.9263,6.30786,61.2073,5.45186C59.2743,4.83986,57.6813,3.52786,55.1983,2.42986C52.4633,1.22086,50.0773,0.110863,47.1983,0.110863C42.5263,0.110863,35.5813,-0.446137,31.2323,0.936863C27.0673,2.26086,23.2723,4.65286,19.3213,6.51786C14.2895,7.07928,9.30054,7.97425,4.38731,9.19686C3.2003,9.39853,2.18343,10.1603,1.65631,11.2429C1.27061,12.0713,0.932388,12.921,0.643311,13.7879C0.259308,13.8199,0.243317,13.7219,0.124313,13.9469C0.0394745,14.2508,0.0106812,14.5676,0.0393066,14.8819C-0.0478668,15.8218,0.0101471,16.7696,0.211304,17.6919C0.295624,18.2344,0.571228,18.7288,0.988297,19.0859C1.27998,19.3181,1.63695,19.4534,2.00929,19.4729L3.78329,19.5309C4.8423,19.3309,4.64229,19.1999,4.5753,17.8529C4.56531,17.6529,4.5603,17.4469,4.5603,17.2399C4.5603,13.4965,7.59491,10.4619,11.3383,10.4619C15.0817,10.4619,18.1163,13.4965,18.1163,17.2399C18.1163,17.6199,18.1083,17.9949,18.0833,18.3579C17.9243,20.6279,17.7133,20.2359,19.7723,20.3389L48.2103,20.3079C49.7243,20.0989,49.6383,20.2899,49.4793,18.3879C49.4483,18.0149,49.4383,17.6309,49.4383,17.2399C49.4383,13.4965,52.4729,10.4619,56.2163,10.4619C59.9597,10.4619,62.9943,13.4965,62.9943,17.2399C62.9943,17.5609,62.9853,17.8809,62.9603,18.1959C62.8393,19.7519,63.2743,19.6249,64.2993,19.5449ZM26.6413,8.28586C26.7662,7.90343,26.8483,7.50836,26.8863,7.10786C26.9403,6.20786,25.2863,6.13586,24.2623,6.20786C26.5904,4.53629,29.1421,3.20053,31.8423,2.23986C33.5423,1.7968,35.2865,1.54557,37.0423,1.49086L39.2883,1.44386C39.6944,1.43886,39.7484,1.62786,39.6283,1.94386C39.2456,3.57164,38.9783,5.22442,38.8283,6.88986C38.7123,7.64086,38.5343,7.81886,37.7673,7.82486C34.7353,7.85086,26.6073,8.43286,26.6413,8.28586ZM11.3533,12.0239C14.2329,12.0239,16.5673,14.3583,16.5673,17.2379C16.5673,20.1175,14.2329,22.4519,11.3533,22.4519C8.47372,22.4519,6.13933,20.1175,6.13933,17.2379C6.13933,14.3583,8.47372,12.0239,11.3533,12.0239Z" fill-rule="evenodd" fill="#0B1F8F" fill-opacity="1"/></g></svg>