<svg xmlns="http://www.w3.org/2000/svg" xmlns:xlink="http://www.w3.org/1999/xlink" fill="none" version="1.1" width="58.34138488769531" height="27.493927001953125" viewBox="0 0 58.34138488769531 27.493927001953125"><g><path d="M55.2674,20.789C55.2954,20.008,55.2924,19.714,55.6144,19.714L57.6414,19.714C58.0302,19.708,58.342,19.3908,58.3414,19.002L58.3414,14.515C58.3414,13.2939,58.0054,13.322,57.0294,13.2809L22.5744,13.325C22.0934,13.325,21.6744,13.2249,21.6744,13.818L21.6744,16.0229C21.6744,16.2889,21.3564,16.3289,20.9884,16.3229C20.7244,16.3179,20.4144,16.2809,20.4144,16.0229L20.4144,1.59998C20.4144,0.641968,20.2374,0.0249634,19.1664,0.0249634L9.31738,0.0249634C7.61494,-0.170074,5.99117,0.793304,5.34639,2.38095C2.60638,7.20596,0.897385,10.756,0.820389,16.381L0.842392,18.101C0.679016,18.1134,0.517624,18.1446,0.361389,18.1939C0.0483856,18.2939,0.0323944,18.4049,0.0113831,18.7119C-0.00561523,18.9559,0.00038147,19.2579,0.00437927,19.412C0.0183868,20.012,-0.0176239,21.3969,0.418381,21.723C0.670883,21.9005,0.969009,22.0018,1.27737,22.015L3.66338,22.062C4.66838,22.0819,4.22638,22.262,4.58937,21.2899C5.41707,19.0656,7.56241,17.6094,9.93515,17.6612C12.3079,17.713,14.3876,19.2616,15.1174,21.52C15.5664,22.913,14.9674,22.6689,16.6794,22.6689L39.0854,22.662C39.3654,22.662,40.0474,22.7079,40.2014,22.506C40.385,22.1194,40.5355,21.7179,40.6514,21.3059C41.4937,19.0271,43.715,17.5564,46.1419,17.6707C48.5687,17.785,50.642,19.458,51.2664,21.8059C51.4894,22.6459,51.6214,22.6339,52.4004,22.627C53.5004,22.618,54.1744,22.606,54.2744,22.593C55.1274,22.4749,55.2674,22.261,55.2744,21.7209C55.2744,21.4909,55.2474,21.0779,55.2674,20.789ZM6.39937,9.23993C6.09937,9.23993,6.55437,8.96692,6.57736,8.39294C6.61636,7.42294,5.41936,7.34894,4.67737,7.42096C5.17883,5.84152,5.87805,4.33188,6.75836,2.92795C7.23172,1.79056,8.40594,1.10895,9.62836,1.26196L15.7764,1.26196C16.1007,1.22678,16.3862,1.4758,16.3954,1.80197L16.3954,8.23499C16.3954,9.04898,16.1814,9.23499,15.6264,9.23499L6.39937,9.23993ZM45.8754,18.9759C48.2281,18.9757,50.1354,20.8826,50.1354,23.2349C50.1356,25.5871,48.2287,27.4939,45.8764,27.4939C43.5242,27.4941,41.6174,25.5872,41.6174,23.2349C41.6179,20.8826,43.5241,18.9759,45.8754,18.9759ZM9.81036,18.9759C12.1626,18.9759,14.0694,20.8828,14.0694,23.2349C14.0694,25.5871,12.1626,27.4939,9.81036,27.4939C7.45818,27.4939,5.55136,25.5871,5.55136,23.2349C5.55136,20.8828,7.45818,18.9759,9.81036,18.9759Z" fill-rule="evenodd" fill="#0B1F8F" fill-opacity="1"/></g></svg>