<svg xmlns="http://www.w3.org/2000/svg" xmlns:xlink="http://www.w3.org/1999/xlink" fill="none" version="1.1" width="86.42098999023438" height="26.9429931640625" viewBox="0 0 86.42098999023438 26.9429931640625"><defs><mask id="master_svg0_1_016" style="mask-type:alpha" maskUnits="userSpaceOnUse"><g><rect x="0" y="0" width="86.4209976196289" height="26.94300079345703" rx="0" fill="#FFFFFF" fill-opacity="1"/></g></mask><mask id="master_svg1_1_019" style="mask-type:alpha" maskUnits="userSpaceOnUse"><g><rect x="0" y="0" width="86.4209976196289" height="26.94300079345703" rx="0" fill="#FFFFFF" fill-opacity="1"/></g></mask><mask id="master_svg2_1_022" style="mask-type:alpha" maskUnits="userSpaceOnUse"><g><rect x="0" y="0" width="86.4209976196289" height="26.94300079345703" rx="0" fill="#FFFFFF" fill-opacity="1"/></g></mask><mask id="master_svg3_1_025" style="mask-type:alpha" maskUnits="userSpaceOnUse"><g><rect x="0" y="0" width="86.4209976196289" height="26.94300079345703" rx="0" fill="#FFFFFF" fill-opacity="1"/></g></mask><mask id="master_svg4_1_028" style="mask-type:alpha" maskUnits="userSpaceOnUse"><g><rect x="0" y="0" width="86.4209976196289" height="26.94300079345703" rx="0" fill="#FFFFFF" fill-opacity="1"/></g></mask><mask id="master_svg5_1_031" style="mask-type:alpha" maskUnits="userSpaceOnUse"><g><rect x="0" y="0" width="86.4209976196289" height="26.94300079345703" rx="0" fill="#FFFFFF" fill-opacity="1"/></g></mask><mask id="master_svg6_1_034" style="mask-type:alpha" maskUnits="userSpaceOnUse"><g><rect x="0" y="0" width="86.4209976196289" height="26.94300079345703" rx="0" fill="#FFFFFF" fill-opacity="1"/></g></mask><mask id="master_svg7_1_037" style="mask-type:alpha" maskUnits="userSpaceOnUse"><g><rect x="0" y="0" width="86.4209976196289" height="26.94300079345703" rx="0" fill="#FFFFFF" fill-opacity="1"/></g></mask><mask id="master_svg8_1_040" style="mask-type:alpha" maskUnits="userSpaceOnUse"><g><rect x="0" y="0" width="86.4209976196289" height="26.94300079345703" rx="0" fill="#FFFFFF" fill-opacity="1"/></g></mask><mask id="master_svg9_1_043" style="mask-type:alpha" maskUnits="userSpaceOnUse"><g><rect x="0" y="0" width="86.4209976196289" height="26.94300079345703" rx="0" fill="#FFFFFF" fill-opacity="1"/></g></mask><mask id="master_svga_1_046" style="mask-type:alpha" maskUnits="userSpaceOnUse"><g><rect x="0" y="0" width="86.4209976196289" height="26.94300079345703" rx="0" fill="#FFFFFF" fill-opacity="1"/></g></mask><mask id="master_svgb_1_049" style="mask-type:alpha" maskUnits="userSpaceOnUse"><g><rect x="0" y="0" width="86.4209976196289" height="26.94300079345703" rx="0" fill="#FFFFFF" fill-opacity="1"/></g></mask><mask id="master_svgc_1_052" style="mask-type:alpha" maskUnits="userSpaceOnUse"><g><rect x="0" y="0" width="86.4209976196289" height="26.94300079345703" rx="0" fill="#FFFFFF" fill-opacity="1"/></g></mask><mask id="master_svgd_1_055" style="mask-type:alpha" maskUnits="userSpaceOnUse"><g><rect x="0" y="0" width="86.4209976196289" height="26.94300079345703" rx="0" fill="#FFFFFF" fill-opacity="1"/></g></mask></defs><g><g><g><g mask="url(#master_svg0_1_016)"><g><path d="M17.618000517578125,12.386001413085937C17.638490517578127,11.983032413085937,17.330720517578126,11.638702413085937,16.927990517578124,11.613998413085938L13.690994517578124,11.613998413085938C13.288253517578125,11.638702413085937,12.980499317578126,11.983032413085937,13.000991821578125,12.386001413085937L13.000991821578125,20.10599841308594C12.980514517578126,20.508958413085935,13.288269517578126,20.853298413085938,13.690994517578124,20.878008413085936L16.927990517578124,20.878008413085936C17.330720517578126,20.853298413085938,17.638470517578124,20.508968413085938,17.618000517578125,20.10599841308594L17.618000517578125,12.386001413085937ZM17.356990517578126,17.055008413085936L17.008990517578127,17.055008413085936L17.008990517578127,15.438008413085937L17.356990517578126,15.438008413085937L17.356990517578126,17.055008413085936Z" fill="#0B1F8F" fill-opacity="1"/></g></g><g mask="url(#master_svg1_1_019)"><g><path d="M7.677006154785156,20.927002236328125C7.138776154785156,20.732055636328123,6.549226154785156,20.732055636328123,6.011006154785156,20.927002236328125C5.035072154785157,21.312805236328124,4.338524154785156,22.189182236328126,4.182998654785156,23.226992236328126C4.149169954785156,23.419492236328125,4.1321029667851565,23.614562236328126,4.131996154785156,23.810002236328124C4.131660461785156,24.032012236328125,4.153778054785156,24.253482236328125,4.197998054785156,24.471012236328125C4.3465731547851565,25.819702236328126,5.486126154785156,26.840632236328126,6.8429961547851565,26.840632236328126C8.199866154785155,26.840632236328126,9.339436154785156,25.819702236328126,9.487996154785156,24.471012236328125C9.532216154785157,24.253482236328125,9.554326154785155,24.032012236328125,9.553996154785157,23.810002236328124C9.553916154785156,23.614532236328124,9.536856154785156,23.419462236328126,9.502996154785157,23.226992236328126C9.348056154785155,22.188932236328125,8.651296154785157,21.312256236328125,7.677006154785156,20.927002236328125Z" fill="#0B1F8F" fill-opacity="1"/></g></g><g mask="url(#master_svg2_1_022)"><g><path d="M26.55298287109375,20.780975341796875C26.13281287109375,20.780181884796875,25.71954287109375,20.887664341796874,25.35296287109375,21.092987341796874C24.56729087109375,21.548156341796876,24.02926587109375,22.333895341796875,23.88897707109375,23.230985341796874C23.85513307109375,23.423465341796874,23.83807377109375,23.618525341796875,23.83798217109375,23.813995341796875L23.83798217109375,23.835995341796874C23.66836587109375,25.445675341796875,24.93042287109375,26.847745341796873,26.54898287109375,26.847745341796873C28.16757287109375,26.847745341796873,29.42962287109375,25.445675341796875,29.25998287109375,23.835995341796874L29.25998287109375,23.813995341796875C29.34414287109375,22.229675341796874,28.13281287109375,20.874908441796876,26.55298287109375,20.780975341796875Z" fill="#0B1F8F" fill-opacity="1"/></g></g><g mask="url(#master_svg3_1_025)"><g><path d="M33.44598552734375,20.780975341796875C31.86242552734375,20.874420141796875,30.65136722734375,22.228885341796875,30.73498532734375,23.812985341796875L30.73498532734375,23.834995341796876C30.56536852734375,25.444645341796875,31.82739552734375,26.846705341796877,33.44598552734375,26.846705341796877C35.06457552734375,26.846705341796877,36.326655527343746,25.444645341796875,36.15698552734375,23.834995341796876L36.15698552734375,23.812985341796875C36.24114552734375,22.228665341796876,35.02984552734375,20.873901341796874,33.44598552734375,20.780975341796875Z" fill="#0B1F8F" fill-opacity="1"/></g></g><g mask="url(#master_svg4_1_028)"><g><path d="M65.95995765625,20.878997793359375C64.24120765625,20.686309693359377,62.70617665625,21.959380693359375,62.57751464625,23.684140693359375C62.44885265625,25.408870693359376,63.77819765625,26.895540693359376,65.50646765625,26.959900693359373C67.23486765625,27.024260693359373,68.67101765625,25.640560693359376,68.67101765625,23.911010693359376C68.75414765625,22.327090693359374,67.54333765625,20.972961693359377,65.95995765625,20.878997793359375Z" fill="#0B1F8F" fill-opacity="1"/></g></g><g mask="url(#master_svg5_1_031)"><g><path d="M65.95996103125,23.2149963396875C65.56628403125,23.1720581296875,65.21545413125,23.4639584296875,65.18603515125,23.8588564296875C65.15649413125,24.2537554296875,65.46032703125,24.5944554296875,65.85595703125,24.6103254296875C66.25171203125,24.6261854296875,66.58166203125,24.3109754296875,66.58398203125,23.9150084296875C66.60559203125,23.5491024296875,66.32580203125,23.2352905296875,65.95996103125,23.2149963396875Z" fill="#0B1F8F" fill-opacity="1"/></g></g><g mask="url(#master_svg6_1_034)"><g><path d="M72.636113046875,20.87899777578125C70.917363046875,20.68624917578125,69.382202046875,21.95929017578125,69.253540036875,23.684050175781252C69.124878046875,25.408810175781248,70.454103046875,26.89554017578125,72.182493046875,26.95990017578125C73.910893046875,27.02426017578125,75.347163046875,25.64056017578125,75.347163046875,23.91101017578125C75.430293046875,22.32709017578125,74.219483046875,20.97296117578125,72.636113046875,20.87899777578125Z" fill="#0B1F8F" fill-opacity="1"/></g></g><g mask="url(#master_svg7_1_037)"><g><path d="M73.6569808203125,23.187988318359373C73.6715108203125,23.183105318359374,73.6873808203125,23.183105318359374,73.7020308203125,23.187988318359373C73.6689408203125,23.123840318359374,73.6293908203125,23.063202318359377,73.5839808203125,23.006988318359376C73.5825208203125,23.023681318359376,73.5770308203125,23.039795318359374,73.5679908203125,23.053985318359373C73.5140408203125,23.138000318359374,73.3599808203125,23.115997318359376,73.2259508203125,23.006988318359376C73.0919208203125,22.897979318359376,73.0260008203125,22.741974318359375,73.0809308203125,22.657989318359373C73.0899608203125,22.645019518359376,73.1020508203125,22.634399418359376,73.1159708203125,22.626983618359375C73.0543208203125,22.597625718359375,72.9899908203125,22.574188218359375,72.9239508203125,22.556976318359375C72.9323708203125,22.572631818359376,72.9365208203125,22.590209918359374,72.9359108203125,22.607971218359374C72.9359108203125,22.707977318359376,72.8018808203125,22.792968318359375,72.6358608203125,22.792968318359375C72.4698508203125,22.792968318359375,72.3358158203125,22.708954318359375,72.3358158203125,22.607971218359374C72.3352048203125,22.590209918359374,72.3393558203125,22.572601318359375,72.3477788203125,22.556976318359375C72.2812498203125,22.573730518359376,72.2165528203125,22.597198518359374,72.1547848203125,22.626983618359375C72.1701658203125,22.632965118359376,72.1832278203125,22.643890418359376,72.1917728203125,22.657989318359373C72.2457278203125,22.742004318359374,72.1817628203125,22.897979318359376,72.0467528203125,23.006988318359376C71.9117428203125,23.115997318359376,71.7597658203125,23.138000318359374,71.7058108203125,23.053985318359373C71.6967778203125,23.039093318359374,71.6914058203125,23.022339318359375,71.6898198203125,23.004974318359373C71.6434328203125,23.062591318359374,71.6025388203125,23.124542318359374,71.5678708203125,23.189972318359374C71.5836178203125,23.184082318359376,71.6009518203125,23.184082318359376,71.6168208203125,23.189972318359374C71.7038578203125,23.220977318359374,71.7337648203125,23.389984318359375,71.6828618203125,23.565976318359375C71.6319578203125,23.741976318359374,71.5189208203125,23.859986318359375,71.4298096203125,23.828976318359373C71.4149170203125,23.823456318359376,71.4018554203125,23.814116318359375,71.3918457003125,23.801976318359376C71.3918457003125,23.838956318359376,71.3868408203125,23.875976318359374,71.3868408203125,23.912966318359373C71.3868408203125,23.949946318359373,71.3868408203125,23.988956318359374,71.3918457003125,24.025966318359377C71.4018554203125,24.013826318359374,71.4149170203125,24.004486318359376,71.4298096203125,23.998966318359376C71.5187988203125,23.967956318359374,71.6297608203125,24.084956318359374,71.6828618203125,24.259946318359376C71.7359618203125,24.434936318359377,71.7038578203125,24.606936318359374,71.6168208203125,24.637936318359376C71.6015628203125,24.642856318359375,71.5850828203125,24.642856318359375,71.5698238203125,24.637936318359376C71.6037598203125,24.703306318359374,71.6439208203125,24.765256318359373,71.6898198203125,24.822936318359375C71.6904298203125,24.804806318359375,71.6959228203125,24.787196318359374,71.7058108203125,24.771946318359376C71.7597658203125,24.689946318359375,71.9128418203125,24.709926318359376,72.0467528203125,24.818936318359377C72.1806638203125,24.927946318359375,72.2467038203125,25.083956318359377,72.1917728203125,25.167936318359374C72.1824948203125,25.182736318359375,72.1694338203125,25.194826318359375,72.1538088203125,25.202946318359373C72.2177738203125,25.232726318359376,72.2849118203125,25.255526318359376,72.3537598203125,25.270936318359375C72.3453368203125,25.255306318359374,72.3411868203125,25.237706318359376,72.3417968203125,25.219936318359373C72.3417968203125,25.119936318359375,72.4758308203125,25.032926318359376,72.6418408203125,25.032926318359376C72.8078608203125,25.032926318359376,72.9418908203125,25.116946318359375,72.9418908203125,25.219936318359373C72.9425008203125,25.237736318359374,72.9383508203125,25.255306318359374,72.9299308203125,25.270936318359375C72.9963408203125,25.254886318359375,73.0610308203125,25.232116318359374,73.1229208203125,25.202946318359373C73.1080308203125,25.194216318359373,73.0954608203125,25.182246318359375,73.0859408203125,25.167936318359374C73.0319808203125,25.083926318359374,73.0959508203125,24.927946318359375,73.2309608203125,24.818936318359377C73.3659708203125,24.709926318359376,73.5189208203125,24.689946318359375,73.5730008203125,24.771946318359376C73.5820308203125,24.786806318359375,73.5875208203125,24.803586318359375,73.5889908203125,24.820956318359375C73.6346408203125,24.765046318359374,73.6741908203125,24.704376318359376,73.7070308203125,24.639956318359374C73.6922608203125,24.643956318359376,73.6766308203125,24.643956318359376,73.6619908203125,24.639956318359374C73.5749508203125,24.608946318359376,73.5450408203125,24.439946318359375,73.5959508203125,24.261966318359374C73.6468508203125,24.083986318359376,73.7598908203125,23.969966318359376,73.8490008203125,24.000976318359374C73.8637708203125,24.006466318359376,73.8768308203125,24.015776318359375,73.8869608203125,24.027986318359375C73.8869608203125,23.990996318359375,73.8919708203125,23.953976318359373,73.8919708203125,23.914976318359376C73.8919708203125,23.875976318359374,73.8919708203125,23.840976318359374,73.8869608203125,23.803986318359375C73.8768308203125,23.816196318359374,73.8637708203125,23.825496318359374,73.8490008203125,23.830996318359375C73.7600108203125,23.861996318359374,73.6490508203125,23.744996318359377,73.5959508203125,23.567996318359373C73.5428508203125,23.390991318359376,73.5749508203125,23.222992318359374,73.6569808203125,23.187988318359373ZM72.6409908203125,24.764986318359377C72.1594238203125,24.818786318359376,71.7293698203125,24.462006318359375,71.6933598203125,23.978726318359374C71.6573488203125,23.495483318359376,72.0297848203125,23.078949318359374,72.5140408203125,23.060852318359373C72.9982908203125,23.042755318359376,73.4007608203125,23.430359318359375,73.4010008203125,23.914976318359376C73.4243208203125,24.359036318359376,73.0848408203125,24.738646318359375,72.6409908203125,24.764986318359377Z" fill="#0B1F8F" fill-opacity="1"/></g></g><g mask="url(#master_svg8_1_040)"><g><path d="M72.6359863515625,23.214996342109377C72.2423093515625,23.171966512109375,71.8914794515625,23.463805912109375,71.8619384715625,23.858733912109376C71.8323974515625,24.253634912109376,72.1361083515625,24.594364912109373,72.5318603515625,24.610294912109374C72.9276153515625,24.626224912109375,73.2576953515625,24.311004912109375,73.2600053515625,23.915008912109375C73.2816153515625,23.549163912109375,73.0018353515625,23.235412612109375,72.6359863515625,23.214996342109377Z" fill="#0B1F8F" fill-opacity="1"/></g></g><g mask="url(#master_svg9_1_043)"><g><path d="M80.550045859375,23.187988318359373C80.564575859375,23.183166318359376,80.580445859375,23.183166318359376,80.595095859375,23.187988318359373C80.562015859375,23.122894318359375,80.522215859375,23.061523318359374,80.476075859375,23.004974318359373C80.474735859375,23.022339318359375,80.469355859375,23.039184318359375,80.460085859375,23.053985318359373C80.406125859375,23.138000318359374,80.253055859375,23.115997318359376,80.119135859375,23.006988318359376C79.985225859375,22.897979318359376,79.919185859375,22.741974318359375,79.974125859375,22.657989318359373C79.982785859375,22.643951418359375,79.995725859375,22.633056618359376,80.011105859375,22.626983618359375C79.949825859375,22.596282918359375,79.885005859375,22.572784418359376,79.818115859375,22.556976318359375C79.826535859375,22.572601318359375,79.830685859375,22.590209918359374,79.830075859375,22.607971218359374C79.830075859375,22.707977318359376,79.696045859375,22.792968318359375,79.530025859375,22.792968318359375C79.364015859375,22.792968318359375,79.229980859375,22.708954318359375,79.229980859375,22.607971218359374C79.229369859375,22.590209918359374,79.233520859375,22.572601318359375,79.241943859375,22.556976318359375C79.175536859375,22.574554418359376,79.110961859375,22.597991918359376,79.048949859375,22.626983618359375C79.064330859375,22.633056618359376,79.077270859375,22.643951418359375,79.085937859375,22.657989318359373C79.139892859375,22.742004318359374,79.074950859375,22.897979318359376,78.940917859375,23.006988318359376C78.806884859375,23.115997318359376,78.653930859375,23.138000318359374,78.599975859375,23.053985318359373C78.590819859375,23.039154318359376,78.585326859375,23.022369318359374,78.583984859375,23.004974318359373C78.537597859375,23.062652318359376,78.496703859375,23.124603318359377,78.462035859375,23.189972318359374C78.477782859375,23.184021318359374,78.495116859375,23.184021318359374,78.510985859375,23.189972318359374C78.598022859375,23.220977318359374,78.627929859375,23.389984318359375,78.577026859375,23.565976318359375C78.526122859375,23.741976318359374,78.413085859375,23.859986318359375,78.323974659375,23.828976318359373C78.309204059375,23.823456318359376,78.296142559375,23.814146318359374,78.286010739375,23.801976318359376C78.286010739375,23.838956318359376,78.281005859375,23.875976318359374,78.281005859375,23.912966318359373C78.281005859375,23.949946318359373,78.281005859375,23.988956318359374,78.286010739375,24.025966318359377C78.296142559375,24.013796318359375,78.309204059375,24.004486318359376,78.323974659375,23.998966318359376C78.412963859375,23.967956318359374,78.523925859375,24.084956318359374,78.577026859375,24.259946318359376C78.630126859375,24.434936318359377,78.598022859375,24.606936318359374,78.510985859375,24.637936318359376C78.495727859375,24.642856318359375,78.479247859375,24.642856318359375,78.463988859375,24.637936318359376C78.497924859375,24.703336318359376,78.538085859375,24.765286318359376,78.583984859375,24.822936318359375C78.584106859375,24.804716318359375,78.589721859375,24.786986318359375,78.599975859375,24.771946318359376C78.653930859375,24.689946318359375,78.807006859375,24.709926318359376,78.940917859375,24.818936318359377C79.074828859375,24.927946318359375,79.140868859375,25.083956318359377,79.085937859375,25.167936318359374C79.076537859375,25.182736318359375,79.063476859375,25.194796318359376,79.047973859375,25.202946318359373C79.111938859375,25.232726318359376,79.179076859375,25.255526318359376,79.247924859375,25.270936318359375C79.239501859375,25.255306318359374,79.235351859375,25.237736318359374,79.235961859375,25.219936318359373C79.235961859375,25.119936318359375,79.369995859375,25.032926318359376,79.536005859375,25.032926318359376C79.702025859375,25.032926318359376,79.836055859375,25.116946318359375,79.836055859375,25.219936318359373C79.836665859375,25.237706318359376,79.832515859375,25.255306318359374,79.824095859375,25.270936318359375C79.891235859375,25.255216318359373,79.956665859375,25.232426318359376,80.019045859375,25.202946318359373C80.003665859375,25.194796318359376,79.990475859375,25.182706318359376,79.981075859375,25.167936318359374C79.927125859375,25.083926318359374,79.991085859375,24.927946318359375,80.126095859375,24.818936318359377C80.261105859375,24.709926318359376,80.414065859375,24.689946318359375,80.467045859375,24.771946318359376C80.477175859375,24.786986318359375,80.482665859375,24.804716318359375,80.483035859375,24.822936318359375C80.529175859375,24.766356318359374,80.568965859375,24.705016318359377,80.602045859375,24.639926318359375C80.587275859375,24.643856318359376,80.571775859375,24.643856318359376,80.557005859375,24.639926318359375C80.469965859375,24.608916318359377,80.440065859375,24.439906318359377,80.490965859375,24.261936318359375C80.541865859375,24.083956318359377,80.654905859375,23.969936318359373,80.744015859375,24.000946318359375C80.758785859375,24.006466318359376,80.771845859375,24.015776318359375,80.781985859375,24.027956318359376C80.781985859375,23.990966318359376,80.786985859375,23.953946318359375,80.786985859375,23.914946318359377C80.786985859375,23.875946318359375,80.786985859375,23.840946318359375,80.781985859375,23.803956318359376C80.771845859375,23.816166318359375,80.758785859375,23.825466318359375,80.744015859375,23.830966318359376C80.655025859375,23.861966318359375,80.544065859375,23.744966318359374,80.490965859375,23.567966318359375C80.437865859375,23.390960318359376,80.469965859375,23.222961318359374,80.550045859375,23.187988318359373ZM79.537965859375,24.764956318359374C79.056396859375,24.818786318359376,78.626342859375,24.462006318359375,78.590331859375,23.978726318359374C78.554320859375,23.495483318359376,78.926757859375,23.078949318359374,79.411005859375,23.060852318359373C79.895265859375,23.042755318359376,80.297725859375,23.430328318359376,80.297975859375,23.914946318359377C80.321895859375,24.359196318359373,79.982175859375,24.739196318359376,79.537965859375,24.764956318359374Z" fill="#0B1F8F" fill-opacity="1"/></g></g><g mask="url(#master_svga_1_046)"><g><path d="M79.532955703125,20.87899777578125C77.814205703125,20.68624917578125,76.279174703125,21.95932017578125,76.150512693125,23.684050175781252C76.021728703125,25.40878017578125,77.351075703125,26.89554017578125,79.079345703125,26.95990017578125C80.807735703125,27.02426017578125,82.244015703125,25.64056017578125,82.244015703125,23.91101017578125C82.327515703125,22.32687017578125,81.116575703125,20.97244217578125,79.532955703125,20.87899777578125Z" fill="#0B1F8F" fill-opacity="1"/></g></g><g mask="url(#master_svgb_1_049)"><g><path d="M79.5310056875,23.2149963390625C79.1372066875,23.1708373890625,78.7854003875,23.4620362890625,78.7550048875,23.8571472890625C78.7247314875,24.2522312890625,79.0280756875,24.5936612890625,79.4240726875,24.6100512890625C79.8199496875,24.6264312890625,80.1505096875,24.3112512890625,80.1529496875,23.9150082890625C80.1745596875,23.5499262890625,79.8961196875,23.2365111890625,79.5310056875,23.2149963390625Z" fill="#0B1F8F" fill-opacity="1"/></g></g><g mask="url(#master_svgc_1_052)"><g><path d="M85.84,1.4329999999525025L85.44,1.4329999999525025L85.44,-0.0010000000474974513L27.672,-0.0010000000474974513L22.5,4.554999999952503L22.5,-0.0010000000474974513L21.166,-0.0010000000474974513L21.166,15.208999999952503L22.5,16.661999999952503L25.16,16.661999999952503C24.7123,17.342799999952504,24.3924,18.099499999952503,24.216,18.894999999952503L23.74,18.894999999952503C23.6169,18.902499999952504,23.5227,19.007799999952503,23.529,19.130999999952504L23.529,19.5909999999525L22.517,19.5909999999525C22.011,18.289499999952504,21.1402,17.161699999952504,20.009,16.342999999952504L20.009,15.472999999952503C20.0153,15.349799999952502,19.9211,15.244499999952502,19.798,15.236999999952502L19.685,15.236999999952502L19.685,8.065999999952503C19.6918,7.942589999952503,19.5974,7.8369799999525025,19.474,7.829999999952503L18.287,7.829999999952503C18.1636,7.8369799999525025,18.0692,7.942589999952503,18.076,8.065999999952503L18.076,10.772999999952502L17.44,10.772999999952502L17.44,7.828999999952503C14.3763,7.947249999952502,11.4165,8.971429999952502,8.935,10.771999999952502L8.321,10.771999999952502L6.675,13.987999999952503L1.95,15.869999999952503C1.64563,16.0042999999525,1.45277,16.309399999952504,1.462,16.641999999952503L1.462,16.662999999952504L0.591,16.662999999952504C0.467604,16.669999999952502,0.373182,16.7755999999525,0.38,16.8989999999525L0.38,23.3319999999525C0.138027,23.4902999999525,-0.0055244,23.7618999999525,0,24.050999999952502L0,24.473999999952504L3.981,24.473999999952504C3.94183,24.2557999999525,3.92209,24.0345999999525,3.922,23.812999999952503C3.92164,23.617699999952503,3.93735,23.422699999952503,3.969,23.229999999952504C4.10755,22.280499999952504,4.65593,21.439599999952502,5.469,20.929999999952503C6.31456,20.418099999952503,7.37444,20.418099999952503,8.22,20.929999999952503C9.03307,21.439599999952502,9.58145,22.280499999952504,9.72,23.229999999952504C9.75161,23.422699999952503,9.76733,23.617699999952503,9.767,23.812999999952503C9.76691,24.0345999999525,9.74717,24.2557999999525,9.708,24.473999999952504L15.256,24.473999999952504C15.3794,24.466999999952503,15.4738,24.361399999952503,15.467,24.237999999952503L15.467,23.230999999952502L21.167,23.230999999952502L21.167,23.598999999952504C21.1608,23.722899999952503,21.2561,23.828499999952502,21.38,23.8349999999525L23.633,23.8349999999525L23.633,23.813999999952504C23.6327,23.618699999952504,23.6484,23.423699999952504,23.68,23.230999999952502C23.8185,22.2814999999525,24.3669,21.440599999952504,25.18,20.9309999999525C25.5948,20.680099999952503,26.0702,20.547399999952503,26.555,20.5469999999525C28.2631,20.6474999999525,29.5694,22.108399999952503,29.479,23.816999999952504L29.479,23.8379999999525L30.526,23.8379999999525L30.526,23.816999999952504C30.4356,22.1090999999525,31.7407,20.648499999952502,33.448,20.5469999999525C35.1561,20.6474999999525,36.4624,22.108399999952503,36.372,23.816999999952504L36.372,23.8379999999525L38.1,23.8379999999525L38.1,24.937999999952503L38.46,24.937999999952503L38.46,21.7569999999525C39.9639,22.603699999952504,41.6434,23.0907999999525,43.367,23.179999999952503L43.367,23.4079999999525L43.614,23.4079999999525L43.614,23.9079999999525L63.038,23.9079999999525C62.8443,22.1657999999525,64.2081,20.642099999952503,65.961,20.642099999952503C67.7139,20.642099999952503,69.0776,22.1657999999525,68.884,23.9079999999525L69.715,23.9079999999525C69.5214,22.1657999999525,70.8851,20.642099999952503,72.638,20.642099999952503C74.3909,20.642099999952503,75.7546,22.1657999999525,75.561,23.9079999999525L76.608,23.9079999999525C76.4144,22.1657999999525,77.7781,20.642099999952503,79.531,20.642099999952503C81.2839,20.642099999952503,82.6476,22.1657999999525,82.454,23.9079999999525L84.2,23.9079999999525L84.2,24.931999999952502L84.56,24.931999999952502L84.56,22.7889999999525L84.837,22.7889999999525L85.114,21.601999999952504L84.56,21.601999999952504L84.56,22.001999999952503L84.56,16.6609999999525L86.422,16.6609999999525L86.422,1.4329999999525025L85.84,1.4329999999525025ZM0.626,17.198999999952502L1.226,17.198999999952502C1.30774,17.198899999952502,1.38855,17.216299999952504,1.463,17.249999999952504C1.7308,17.375699999952502,1.89852,17.648299999952503,1.89,17.943999999952503L1.89,20.0329999999525C1.89852,20.3286999999525,1.7308,20.601299999952502,1.463,20.726999999952504C1.38855,20.760699999952504,1.30774,20.778099999952502,1.226,20.777999999952502L0.626,20.777999999952502L0.626,17.198999999952502ZM0.626,21.498999999952503L1.889,21.498999999952503L1.889,22.1809999999525L0.626,22.1809999999525L0.626,21.498999999952503ZM6.339,19.586999999952504L5.711,19.586999999952504C5.59615,19.571799999952503,5.51033,19.473899999952504,5.51033,19.357999999952504C5.51033,19.2420999999525,5.59615,19.1441999999525,5.711,19.1289999999525L6.338,19.1289999999525C6.45621,19.140099999952504,6.54658,19.239299999952504,6.54658,19.357999999952504C6.54658,19.4766999999525,6.45621,19.5758999999525,6.339,19.586999999952504ZM31.508,18.286999999952503L33.146,18.286999999952503L33.146,19.258999999952504L31.508,19.258999999952504L31.508,18.286999999952503ZM26.161,18.304999999952503L27.8,18.304999999952503L27.8,19.2769999999525L26.161,19.2769999999525L26.161,18.304999999952503ZM22.331,19.586999999952504L21.379,19.586999999952504C21.2551,19.593499999952503,21.1598,19.6990999999525,21.166,19.822999999952504L21.166,20.922999999952502L19.685,20.922999999952502L19.685,17.198999999952502L19.8,17.198999999952502C19.9231,17.1914999999525,20.0173,17.086199999952502,20.011,16.9629999999525L20.011,16.5789999999525C21.0474,17.350599999952504,21.8509,18.393199999952504,22.331,19.586999999952504ZM7.527,13.998999999952503C7.449,13.996999999952502,7.37853,13.951999999952502,7.344,13.881999999952502C7.30656,13.807799999952502,7.30656,13.720199999952502,7.344,13.645999999952503L8.288,11.778999999952502C8.34911,11.650899999952502,8.47712,11.568199999952503,8.619,11.564999999952503L11.78,11.564999999952503C12.0031,11.575699999952503,12.1742,11.767099999952503,12.16,11.989999999952502L12.16,13.573999999952502C12.1742,13.796899999952503,12.0031,13.988299999952503,11.78,13.998999999952503L7.527,13.998999999952503ZM12.16,15.980999999952502L11.928,15.980999999952502L11.928,14.764999999952503L12.16,14.764999999952503L12.16,15.980999999952502ZM16.924,20.973999999952504L13.686,20.973999999952504C13.5984,20.9736999999525,13.5116,20.9569999999525,13.43,20.9249999999525C13.1053,20.783599999952504,12.8991,20.458999999952503,12.909,20.104999999952504L12.909,12.385999999952503C12.8857,11.932199999952502,13.2324,11.544399999952503,13.686,11.516999999952503L16.923,11.516999999952503C17.3766,11.544399999952503,17.7233,11.932199999952502,17.7,12.385999999952503L17.7,20.106999999952503C17.7099,20.460999999952502,17.5037,20.785599999952503,17.179,20.926999999952503C17.0974,20.958999999952503,17.0106,20.975699999952504,16.924,20.973999999952504ZM19.685,21.406999999952504L21.166,21.406999999952504L21.166,22.5069999999525L19.685,22.5069999999525L19.685,21.406999999952504ZM25.257,19.592999999952504L25.257,19.132999999952503C25.2633,19.009799999952502,25.1691,18.904499999952503,25.046,18.896999999952502L24.759,18.896999999952502C24.9708,18.0924999999525,25.3321,17.3348999999525,25.824,16.6639999999525L28.74,16.6639999999525L28.74,17.998999999952503L25.816,17.998999999952503L25.816,19.588999999952502L25.257,19.592999999952504ZM33.446,19.592999999952504L33.446,17.998999999952503L30.524,17.998999999952503L30.524,17.198999999952502L37.6,17.198999999952502L37.6,16.658999999952503L43.61,16.658999999952503L43.61,19.668999999952504L42.731,19.668999999952504L42.731,20.2569999999525C41.1832,20.306399999952504,39.6338,20.239499999952503,38.096,20.056999999952502L38.096,19.592999999952504L33.446,19.592999999952504ZM38.457,21.539999999952503L38.457,20.8089999999525L38.1,20.8089999999525L38.1,20.6459999999525C39.307,20.786999999952503,40.5208,20.861099999952504,41.736,20.867999999952502C42.067,20.867999999952502,42.402,20.861999999952502,42.736,20.8469999999525L42.736,21.226999999952504L43.615,21.226999999952504L43.615,22.7539999999525L43.368,22.7539999999525L43.368,22.9859999999525C41.6422,22.893499999952503,39.962,22.398299999952503,38.457,21.539999999952503Z" fill="#0B1F8F" fill-opacity="1"/></g></g><g mask="url(#master_svgd_1_055)"><g><path d="M84.8369145234375,21.01700965332031L85.1138915234375,17.867019653320312L84.5599365234375,17.867019653320312L84.5599365234375,21.01700965332031L84.8369145234375,21.01700965332031Z" fill="#0B1F8F" fill-opacity="1"/></g></g></g></g></g></svg>